<svg width="352" height="230" viewBox="0 0 352 230" fill="none" xmlns="http://www.w3.org/2000/svg">
<g clip-path="url(#clip0_9654_110270)">
<rect width="352" height="230" rx="16" fill="#E6F2F0"/>
<rect width="352" height="230" rx="16" fill="url(#paint0_linear_9654_110270)"/>
<mask id="path-2-inside-1_9654_110270" fill="white">
<path d="M0 36C0 31.5817 3.58172 28 8 28H368C372.418 28 376 31.5817 376 36V52C376 56.4183 372.418 60 368 60H8C3.58172 60 0 56.4183 0 52V36Z"/>
</mask>
<path d="M0 36C0 31.5817 3.58172 28 8 28H368C372.418 28 376 31.5817 376 36V52C376 56.4183 372.418 60 368 60H8C3.58172 60 0 56.4183 0 52V36Z" fill="#F8F9FA"/>
<path d="M8 29H368V27H8V29ZM375 36V52H377V36H375ZM368 59H8V61H368V59ZM1 52V36H-1V52H1ZM8 59C4.13401 59 1 55.866 1 52H-1C-1 56.9706 3.02944 61 8 61V59ZM375 52C375 55.866 371.866 59 368 59V61C372.971 61 377 56.9706 377 52H375ZM368 29C371.866 29 375 32.134 375 36H377C377 31.0294 372.971 27 368 27V29ZM8 27C3.02944 27 -1 31.0294 -1 36H1C1 32.134 4.13401 29 8 29V27Z" fill="#D6DAE1" mask="url(#path-2-inside-1_9654_110270)"/>
<g clip-path="url(#clip1_9654_110270)">
<path d="M16.1014 10.5973C15.4694 10.5973 14.4914 9.87867 13.4614 9.904C12.1014 9.922 10.8547 10.6927 10.1541 11.9133C8.74274 14.3633 9.79007 17.982 11.1667 19.9733C11.8421 20.9427 12.6387 22.0333 13.6947 21.9993C14.7081 21.956 15.0881 21.3413 16.3181 21.3413C17.5387 21.3413 17.8847 21.9993 18.9581 21.9733C20.0494 21.956 20.7421 20.9867 21.4087 20.008C22.1794 18.8827 22.4994 17.7913 22.5167 17.7313C22.4907 17.7227 20.3954 16.9173 20.3701 14.4933C20.3527 12.4667 22.0234 11.4973 22.1014 11.454C21.1487 10.0607 19.6861 9.90467 19.1747 9.87C17.8414 9.766 16.7247 10.5973 16.1014 10.5973ZM18.3534 8.55333C18.9154 7.87867 19.2867 6.93533 19.1834 6C18.3787 6.03467 17.4087 6.53667 16.8287 7.212C16.3087 7.80933 15.8594 8.77067 15.9801 9.688C16.8721 9.75733 17.7901 9.22933 18.3527 8.554" fill="#D6DAE1"/>
</g>
<rect x="32" y="4" width="52" height="20" rx="6" fill="#B3E7DE"/>
<path d="M43.648 18.084C43.088 18.084 42.584 17.988 42.136 17.796C41.688 17.596 41.336 17.316 41.08 16.956C40.824 16.596 40.696 16.176 40.696 15.696H42.16C42.192 16.056 42.332 16.352 42.58 16.584C42.836 16.816 43.192 16.932 43.648 16.932C44.12 16.932 44.488 16.82 44.752 16.596C45.016 16.364 45.148 16.068 45.148 15.708C45.148 15.428 45.064 15.2 44.896 15.024C44.736 14.848 44.532 14.712 44.284 14.616C44.044 14.52 43.708 14.416 43.276 14.304C42.732 14.16 42.288 14.016 41.944 13.872C41.608 13.72 41.32 13.488 41.08 13.176C40.84 12.864 40.72 12.448 40.72 11.928C40.72 11.448 40.84 11.028 41.08 10.668C41.32 10.308 41.656 10.032 42.088 9.84C42.52 9.648 43.02 9.552 43.588 9.552C44.396 9.552 45.056 9.756 45.568 10.164C46.088 10.564 46.376 11.116 46.432 11.82H44.92C44.896 11.516 44.752 11.256 44.488 11.04C44.224 10.824 43.876 10.716 43.444 10.716C43.052 10.716 42.732 10.816 42.484 11.016C42.236 11.216 42.112 11.504 42.112 11.88C42.112 12.136 42.188 12.348 42.34 12.516C42.5 12.676 42.7 12.804 42.94 12.9C43.18 12.996 43.508 13.1 43.924 13.212C44.476 13.364 44.924 13.516 45.268 13.668C45.62 13.82 45.916 14.056 46.156 14.376C46.404 14.688 46.528 15.108 46.528 15.636C46.528 16.06 46.412 16.46 46.18 16.836C45.956 17.212 45.624 17.516 45.184 17.748C44.752 17.972 44.24 18.084 43.648 18.084ZM47.6862 14.664C47.6862 14 47.8222 13.412 48.0942 12.9C48.3742 12.388 48.7502 11.992 49.2222 11.712C49.7022 11.424 50.2302 11.28 50.8062 11.28C51.3262 11.28 51.7782 11.384 52.1622 11.592C52.5542 11.792 52.8662 12.044 53.0982 12.348V11.388H54.4782V18H53.0982V17.016C52.8662 17.328 52.5502 17.588 52.1502 17.796C51.7502 18.004 51.2942 18.108 50.7822 18.108C50.2142 18.108 49.6942 17.964 49.2222 17.676C48.7502 17.38 48.3742 16.972 48.0942 16.452C47.8222 15.924 47.6862 15.328 47.6862 14.664ZM53.0982 14.688C53.0982 14.232 53.0022 13.836 52.8102 13.5C52.6262 13.164 52.3822 12.908 52.0782 12.732C51.7742 12.556 51.4462 12.468 51.0942 12.468C50.7422 12.468 50.4142 12.556 50.1102 12.732C49.8062 12.9 49.5582 13.152 49.3662 13.488C49.1822 13.816 49.0902 14.208 49.0902 14.664C49.0902 15.12 49.1822 15.52 49.3662 15.864C49.5582 16.208 49.8062 16.472 50.1102 16.656C50.4222 16.832 50.7502 16.92 51.0942 16.92C51.4462 16.92 51.7742 16.832 52.0782 16.656C52.3822 16.48 52.6262 16.224 52.8102 15.888C53.0022 15.544 53.0982 15.144 53.0982 14.688ZM59.047 12.504H57.823V18H56.443V12.504H55.663V11.388H56.443V10.92C56.443 10.16 56.643 9.608 57.043 9.264C57.451 8.912 58.087 8.736 58.951 8.736V9.876C58.535 9.876 58.243 9.956 58.075 10.116C57.907 10.268 57.823 10.536 57.823 10.92V11.388H59.047V12.504ZM59.8034 14.664C59.8034 14 59.9394 13.412 60.2114 12.9C60.4914 12.388 60.8674 11.992 61.3394 11.712C61.8194 11.424 62.3474 11.28 62.9234 11.28C63.4434 11.28 63.8954 11.384 64.2794 11.592C64.6714 11.792 64.9834 12.044 65.2154 12.348V11.388H66.5954V18H65.2154V17.016C64.9834 17.328 64.6674 17.588 64.2674 17.796C63.8674 18.004 63.4114 18.108 62.8994 18.108C62.3314 18.108 61.8114 17.964 61.3394 17.676C60.8674 17.38 60.4914 16.972 60.2114 16.452C59.9394 15.924 59.8034 15.328 59.8034 14.664ZM65.2154 14.688C65.2154 14.232 65.1194 13.836 64.9274 13.5C64.7434 13.164 64.4994 12.908 64.1954 12.732C63.8914 12.556 63.5634 12.468 63.2114 12.468C62.8594 12.468 62.5314 12.556 62.2274 12.732C61.9234 12.9 61.6754 13.152 61.4834 13.488C61.2994 13.816 61.2074 14.208 61.2074 14.664C61.2074 15.12 61.2994 15.52 61.4834 15.864C61.6754 16.208 61.9234 16.472 62.2274 16.656C62.5394 16.832 62.8674 16.92 63.2114 16.92C63.5634 16.92 63.8914 16.832 64.1954 16.656C64.4994 16.48 64.7434 16.224 64.9274 15.888C65.1194 15.544 65.2154 15.144 65.2154 14.688ZM69.7602 12.348C69.9602 12.012 70.2242 11.752 70.5522 11.568C70.8882 11.376 71.2842 11.28 71.7402 11.28V12.696H71.3922C70.8562 12.696 70.4482 12.832 70.1682 13.104C69.8962 13.376 69.7602 13.848 69.7602 14.52V18H68.3922V11.388H69.7602V12.348ZM73.6937 10.512C73.4457 10.512 73.2377 10.428 73.0697 10.26C72.9017 10.092 72.8177 9.884 72.8177 9.636C72.8177 9.388 72.9017 9.18 73.0697 9.012C73.2377 8.844 73.4457 8.76 73.6937 8.76C73.9337 8.76 74.1377 8.844 74.3057 9.012C74.4737 9.18 74.5577 9.388 74.5577 9.636C74.5577 9.884 74.4737 10.092 74.3057 10.26C74.1377 10.428 73.9337 10.512 73.6937 10.512ZM74.3657 11.388V18H72.9977V11.388H74.3657Z" fill="#1A1E23"/>
<rect x="92" y="8" width="24" height="12" rx="6" fill="#D6DAE1"/>
<rect x="124" y="8" width="32" height="12" rx="6" fill="#D6DAE1"/>
<rect x="164" y="8" width="32" height="12" rx="6" fill="#D6DAE1"/>
<rect x="8" y="40" width="8" height="8" rx="4" fill="#D6DAE1"/>
<rect x="20" y="40" width="8" height="8" rx="4" fill="#D6DAE1"/>
<rect x="32" y="40" width="8" height="8" rx="4" fill="#D6DAE1"/>
<path d="M46.6665 40C46.6665 39.6463 46.807 39.3072 47.057 39.0572C47.3071 38.8071 47.6462 38.6666 47.9998 38.6666H55.9998C56.3535 38.6666 56.6926 38.8071 56.9426 39.0572C57.1927 39.3072 57.3332 39.6463 57.3332 40V48C57.3332 48.3536 57.1927 48.6927 56.9426 48.9428C56.6926 49.1928 56.3535 49.3333 55.9998 49.3333H47.9998C47.6462 49.3333 47.3071 49.1928 47.057 48.9428C46.807 48.6927 46.6665 48.3536 46.6665 48V40Z" stroke="#9CA7B6" stroke-width="1.5" stroke-linecap="round" stroke-linejoin="round"/>
<path d="M50 38.6666V49.3333" stroke="#9CA7B6" stroke-width="1.5" stroke-linecap="round" stroke-linejoin="round"/>
<path d="M74 40L70 44L74 48" stroke="#9CA7B6" stroke-width="1.5" stroke-linecap="round" stroke-linejoin="round"/>
<rect x="88" y="32" width="292" height="24" rx="8" fill="#EAEDF0"/>
<path d="M8.5 80C8.5 73.6487 13.6487 68.5 20 68.5H260C266.351 68.5 271.5 73.6487 271.5 80V237.5H8.5V80Z" fill="#F8F9FA"/>
<rect x="24" y="84" width="74" height="12" rx="6" fill="#D6DAE1"/>
<rect x="24" y="104" width="119" height="12" rx="6" fill="#D6DAE1"/>
<rect x="24" y="124" width="232" height="1" fill="#EAEDF0"/>
<rect x="24" y="133" width="61" height="12" rx="6" fill="#D6DAE1"/>
<rect x="24" y="153" width="108" height="12" rx="6" fill="#D6DAE1"/>
<rect x="24" y="173" width="232" height="20" rx="6" fill="#B3E7DE"/>
<path d="M35.504 187.084C34.952 187.084 34.464 186.988 34.04 186.796C33.624 186.604 33.296 186.336 33.056 185.992C32.816 185.648 32.688 185.264 32.672 184.84H33.56C33.6 185.248 33.78 185.608 34.1 185.92C34.42 186.224 34.888 186.376 35.504 186.376C36.072 186.376 36.52 186.232 36.848 185.944C37.184 185.648 37.352 185.276 37.352 184.828C37.352 184.468 37.26 184.18 37.076 183.964C36.892 183.74 36.664 183.576 36.392 183.472C36.12 183.36 35.744 183.24 35.264 183.112C34.704 182.96 34.26 182.812 33.932 182.668C33.604 182.524 33.324 182.3 33.092 181.996C32.86 181.692 32.744 181.28 32.744 180.76C32.744 180.328 32.856 179.944 33.08 179.608C33.304 179.264 33.62 178.996 34.028 178.804C34.436 178.612 34.904 178.516 35.432 178.516C36.208 178.516 36.832 178.708 37.304 179.092C37.784 179.468 38.06 179.956 38.132 180.556H37.22C37.164 180.212 36.976 179.908 36.656 179.644C36.336 179.372 35.904 179.236 35.36 179.236C34.856 179.236 34.436 179.372 34.1 179.644C33.764 179.908 33.596 180.272 33.596 180.736C33.596 181.088 33.688 181.372 33.872 181.588C34.056 181.804 34.284 181.968 34.556 182.08C34.836 182.192 35.212 182.312 35.684 182.44C36.228 182.592 36.668 182.744 37.004 182.896C37.34 183.04 37.624 183.264 37.856 183.568C38.088 183.872 38.204 184.28 38.204 184.792C38.204 185.184 38.1 185.556 37.892 185.908C37.684 186.26 37.376 186.544 36.968 186.76C36.56 186.976 36.072 187.084 35.504 187.084ZM45.7552 183.388C45.7552 183.676 45.7472 183.896 45.7312 184.048H40.2952C40.3192 184.544 40.4392 184.968 40.6552 185.32C40.8712 185.672 41.1552 185.94 41.5072 186.124C41.8592 186.3 42.2432 186.388 42.6592 186.388C43.2032 186.388 43.6592 186.256 44.0272 185.992C44.4032 185.728 44.6512 185.372 44.7712 184.924H45.6592C45.4992 185.564 45.1552 186.088 44.6272 186.496C44.1072 186.896 43.4512 187.096 42.6592 187.096C42.0432 187.096 41.4912 186.96 41.0032 186.688C40.5152 186.408 40.1312 186.016 39.8512 185.512C39.5792 185 39.4432 184.404 39.4432 183.724C39.4432 183.044 39.5792 182.448 39.8512 181.936C40.1232 181.424 40.5032 181.032 40.9912 180.76C41.4792 180.488 42.0352 180.352 42.6592 180.352C43.2832 180.352 43.8272 180.488 44.2912 180.76C44.7632 181.032 45.1232 181.4 45.3712 181.864C45.6272 182.32 45.7552 182.828 45.7552 183.388ZM44.9032 183.364C44.9112 182.876 44.8112 182.46 44.6032 182.116C44.4032 181.772 44.1272 181.512 43.7752 181.336C43.4232 181.16 43.0392 181.072 42.6232 181.072C41.9992 181.072 41.4672 181.272 41.0272 181.672C40.5872 182.072 40.3432 182.636 40.2952 183.364H44.9032ZM48.384 181.156V185.224C48.384 185.624 48.46 185.9 48.612 186.052C48.764 186.204 49.032 186.28 49.416 186.28H50.184V187H49.284C48.692 187 48.252 186.864 47.964 186.592C47.676 186.312 47.532 185.856 47.532 185.224V181.156H46.62V180.448H47.532V178.804H48.384V180.448H50.184V181.156H48.384ZM52.6614 181.156V185.224C52.6614 185.624 52.7374 185.9 52.8894 186.052C53.0414 186.204 53.3094 186.28 53.6934 186.28H54.4614V187H53.5614C52.9694 187 52.5294 186.864 52.2414 186.592C51.9534 186.312 51.8094 185.856 51.8094 185.224V181.156H50.8974V180.448H51.8094V178.804H52.6614V180.448H54.4614V181.156H52.6614ZM56.2667 179.212C56.0987 179.212 55.9547 179.152 55.8347 179.032C55.7147 178.912 55.6547 178.764 55.6547 178.588C55.6547 178.412 55.7147 178.268 55.8347 178.156C55.9547 178.036 56.0987 177.976 56.2667 177.976C56.4347 177.976 56.5787 178.036 56.6987 178.156C56.8187 178.268 56.8787 178.412 56.8787 178.588C56.8787 178.764 56.8187 178.912 56.6987 179.032C56.5787 179.152 56.4347 179.212 56.2667 179.212ZM56.6867 180.448V187H55.8467V180.448H56.6867ZM61.6609 180.328C62.4449 180.328 63.0849 180.572 63.5809 181.06C64.0769 181.54 64.3249 182.24 64.3249 183.16V187H63.4969V183.256C63.4969 182.544 63.3169 182 62.9569 181.624C62.6049 181.248 62.1209 181.06 61.5049 181.06C60.8729 181.06 60.3689 181.26 59.9929 181.66C59.6169 182.06 59.4289 182.648 59.4289 183.424V187H58.5889V180.448H59.4289V181.564C59.6369 181.164 59.9369 180.86 60.3289 180.652C60.7209 180.436 61.1649 180.328 61.6609 180.328ZM68.9307 180.352C69.5467 180.352 70.0827 180.496 70.5387 180.784C70.9947 181.072 71.3227 181.436 71.5227 181.876V180.448H72.3627V187.168C72.3627 187.768 72.2307 188.3 71.9667 188.764C71.7107 189.228 71.3507 189.584 70.8867 189.832C70.4227 190.088 69.8947 190.216 69.3027 190.216C68.4627 190.216 67.7627 190.016 67.2027 189.616C66.6507 189.216 66.3067 188.672 66.1707 187.984H66.9987C67.1427 188.44 67.4147 188.804 67.8147 189.076C68.2227 189.348 68.7187 189.484 69.3027 189.484C69.7267 189.484 70.1067 189.392 70.4427 189.208C70.7787 189.032 71.0427 188.768 71.2347 188.416C71.4267 188.064 71.5227 187.648 71.5227 187.168V185.548C71.3147 185.996 70.9827 186.368 70.5267 186.664C70.0787 186.952 69.5467 187.096 68.9307 187.096C68.3307 187.096 67.7907 186.956 67.3107 186.676C66.8387 186.396 66.4667 186 66.1947 185.488C65.9307 184.976 65.7987 184.384 65.7987 183.712C65.7987 183.04 65.9307 182.452 66.1947 181.948C66.4667 181.436 66.8387 181.044 67.3107 180.772C67.7907 180.492 68.3307 180.352 68.9307 180.352ZM71.5227 183.724C71.5227 183.196 71.4147 182.732 71.1987 182.332C70.9827 181.932 70.6867 181.624 70.3107 181.408C69.9427 181.192 69.5347 181.084 69.0867 181.084C68.6227 181.084 68.2067 181.188 67.8387 181.396C67.4707 181.604 67.1787 181.908 66.9627 182.308C66.7547 182.7 66.6507 183.168 66.6507 183.712C66.6507 184.248 66.7547 184.72 66.9627 185.128C67.1787 185.528 67.4707 185.836 67.8387 186.052C68.2067 186.26 68.6227 186.364 69.0867 186.364C69.5347 186.364 69.9427 186.256 70.3107 186.04C70.6867 185.824 70.9827 185.516 71.1987 185.116C71.4147 184.716 71.5227 184.252 71.5227 183.724ZM76.5363 187.096C75.7843 187.096 75.1683 186.924 74.6883 186.58C74.2163 186.228 73.9523 185.752 73.8963 185.152H74.7603C74.8003 185.52 74.9723 185.82 75.2763 186.052C75.5883 186.276 76.0043 186.388 76.5243 186.388C76.9803 186.388 77.3363 186.28 77.5923 186.064C77.8563 185.848 77.9883 185.58 77.9883 185.26C77.9883 185.036 77.9163 184.852 77.7723 184.708C77.6283 184.564 77.4443 184.452 77.2203 184.372C77.0043 184.284 76.7083 184.192 76.3323 184.096C75.8443 183.968 75.4483 183.84 75.1443 183.712C74.8403 183.584 74.5803 183.396 74.3643 183.148C74.1563 182.892 74.0523 182.552 74.0523 182.128C74.0523 181.808 74.1483 181.512 74.3403 181.24C74.5323 180.968 74.8043 180.752 75.1563 180.592C75.5083 180.432 75.9083 180.352 76.3563 180.352C77.0603 180.352 77.6283 180.532 78.0603 180.892C78.4923 181.244 78.7243 181.732 78.7563 182.356H77.9163C77.8923 181.972 77.7403 181.664 77.4603 181.432C77.1883 181.192 76.8123 181.072 76.3323 181.072C75.9083 181.072 75.5643 181.172 75.3003 181.372C75.0363 181.572 74.9043 181.82 74.9043 182.116C74.9043 182.372 74.9803 182.584 75.1323 182.752C75.2923 182.912 75.4883 183.04 75.7203 183.136C75.9523 183.224 76.2643 183.324 76.6563 183.436C77.1283 183.564 77.5043 183.688 77.7843 183.808C78.0643 183.928 78.3043 184.104 78.5043 184.336C78.7043 184.568 78.8083 184.876 78.8163 185.26C78.8163 185.612 78.7203 185.928 78.5283 186.208C78.3363 186.48 78.0683 186.696 77.7243 186.856C77.3803 187.016 76.9843 187.096 76.5363 187.096ZM86.2705 181.156H84.7465V187H83.9065V181.156H82.9945V180.448H83.9065V179.992C83.9065 179.28 84.0865 178.756 84.4465 178.42C84.8145 178.084 85.4065 177.916 86.2225 177.916V178.636C85.6785 178.636 85.2945 178.74 85.0705 178.948C84.8545 179.156 84.7465 179.504 84.7465 179.992V180.448H86.2705V181.156ZM90.4608 187.096C89.8448 187.096 89.2888 186.96 88.7928 186.688C88.3048 186.408 87.9168 186.016 87.6288 185.512C87.3488 185 87.2088 184.404 87.2088 183.724C87.2088 183.044 87.3528 182.452 87.6408 181.948C87.9288 181.436 88.3208 181.044 88.8168 180.772C89.3128 180.492 89.8688 180.352 90.4848 180.352C91.1008 180.352 91.6568 180.492 92.1528 180.772C92.6568 181.044 93.0488 181.436 93.3288 181.948C93.6168 182.452 93.7608 183.044 93.7608 183.724C93.7608 184.396 93.6168 184.988 93.3288 185.5C93.0408 186.012 92.6448 186.408 92.1408 186.688C91.6368 186.96 91.0768 187.096 90.4608 187.096ZM90.4608 186.364C90.8928 186.364 91.2928 186.268 91.6608 186.076C92.0288 185.876 92.3248 185.58 92.5488 185.188C92.7808 184.788 92.8968 184.3 92.8968 183.724C92.8968 183.148 92.7848 182.664 92.5608 182.272C92.3368 181.872 92.0408 181.576 91.6728 181.384C91.3048 181.184 90.9048 181.084 90.4728 181.084C90.0408 181.084 89.6408 181.184 89.2728 181.384C88.9048 181.576 88.6088 181.872 88.3848 182.272C88.1688 182.664 88.0608 183.148 88.0608 183.724C88.0608 184.3 88.1688 184.788 88.3848 185.188C88.6088 185.58 88.9008 185.876 89.2608 186.076C89.6288 186.268 90.0288 186.364 90.4608 186.364ZM96.132 181.612C96.316 181.204 96.596 180.888 96.972 180.664C97.356 180.44 97.824 180.328 98.376 180.328V181.204H98.148C97.54 181.204 97.052 181.368 96.684 181.696C96.316 182.024 96.132 182.572 96.132 183.34V187H95.292V180.448H96.132V181.612ZM110.733 180.328C111.501 180.328 112.125 180.572 112.605 181.06C113.093 181.54 113.337 182.24 113.337 183.16V187H112.509V183.256C112.509 182.544 112.337 182 111.993 181.624C111.649 181.248 111.181 181.06 110.589 181.06C109.973 181.06 109.481 181.264 109.113 181.672C108.745 182.08 108.561 182.672 108.561 183.448V187H107.733V183.256C107.733 182.544 107.561 182 107.217 181.624C106.873 181.248 106.401 181.06 105.801 181.06C105.185 181.06 104.693 181.264 104.325 181.672C103.957 182.08 103.773 182.672 103.773 183.448V187H102.933V180.448H103.773V181.576C103.981 181.168 104.277 180.86 104.661 180.652C105.045 180.436 105.473 180.328 105.945 180.328C106.513 180.328 107.009 180.464 107.433 180.736C107.865 181.008 108.177 181.408 108.369 181.936C108.545 181.416 108.845 181.02 109.269 180.748C109.701 180.468 110.189 180.328 110.733 180.328ZM121.13 183.388C121.13 183.676 121.122 183.896 121.106 184.048H115.67C115.694 184.544 115.814 184.968 116.03 185.32C116.246 185.672 116.53 185.94 116.882 186.124C117.234 186.3 117.618 186.388 118.034 186.388C118.578 186.388 119.034 186.256 119.402 185.992C119.778 185.728 120.026 185.372 120.146 184.924H121.034C120.874 185.564 120.53 186.088 120.002 186.496C119.482 186.896 118.826 187.096 118.034 187.096C117.418 187.096 116.866 186.96 116.378 186.688C115.89 186.408 115.506 186.016 115.226 185.512C114.954 185 114.818 184.404 114.818 183.724C114.818 183.044 114.954 182.448 115.226 181.936C115.498 181.424 115.878 181.032 116.366 180.76C116.854 180.488 117.41 180.352 118.034 180.352C118.658 180.352 119.202 180.488 119.666 180.76C120.138 181.032 120.498 181.4 120.746 181.864C121.002 182.32 121.13 182.828 121.13 183.388ZM120.278 183.364C120.286 182.876 120.186 182.46 119.978 182.116C119.778 181.772 119.502 181.512 119.15 181.336C118.798 181.16 118.414 181.072 117.998 181.072C117.374 181.072 116.842 181.272 116.402 181.672C115.962 182.072 115.718 182.636 115.67 183.364H120.278ZM128.595 183.388C128.595 183.676 128.587 183.896 128.571 184.048H123.135C123.159 184.544 123.279 184.968 123.495 185.32C123.711 185.672 123.995 185.94 124.347 186.124C124.699 186.3 125.083 186.388 125.499 186.388C126.043 186.388 126.499 186.256 126.867 185.992C127.243 185.728 127.491 185.372 127.611 184.924H128.499C128.339 185.564 127.995 186.088 127.467 186.496C126.947 186.896 126.291 187.096 125.499 187.096C124.883 187.096 124.331 186.96 123.843 186.688C123.355 186.408 122.971 186.016 122.691 185.512C122.419 185 122.283 184.404 122.283 183.724C122.283 183.044 122.419 182.448 122.691 181.936C122.963 181.424 123.343 181.032 123.831 180.76C124.319 180.488 124.875 180.352 125.499 180.352C126.123 180.352 126.667 180.488 127.131 180.76C127.603 181.032 127.963 181.4 128.211 181.864C128.467 182.32 128.595 182.828 128.595 183.388ZM127.743 183.364C127.751 182.876 127.651 182.46 127.443 182.116C127.243 181.772 126.967 181.512 126.615 181.336C126.263 181.16 125.879 181.072 125.463 181.072C124.839 181.072 124.307 181.272 123.867 181.672C123.427 182.072 123.183 182.636 123.135 183.364H127.743ZM129.748 183.712C129.748 183.04 129.884 182.452 130.156 181.948C130.428 181.436 130.8 181.044 131.272 180.772C131.752 180.492 132.292 180.352 132.892 180.352C133.468 180.352 133.988 180.492 134.452 180.772C134.916 181.052 135.256 181.416 135.472 181.864V178.12H136.312V187H135.472V185.536C135.272 185.992 134.944 186.368 134.488 186.664C134.032 186.952 133.496 187.096 132.88 187.096C132.28 187.096 131.74 186.956 131.26 186.676C130.788 186.396 130.416 186 130.144 185.488C129.88 184.976 129.748 184.384 129.748 183.712ZM135.472 183.724C135.472 183.196 135.364 182.732 135.148 182.332C134.932 181.932 134.636 181.624 134.26 181.408C133.892 181.192 133.484 181.084 133.036 181.084C132.572 181.084 132.156 181.188 131.788 181.396C131.42 181.604 131.128 181.908 130.912 182.308C130.704 182.7 130.6 183.168 130.6 183.712C130.6 184.248 130.704 184.72 130.912 185.128C131.128 185.528 131.42 185.836 131.788 186.052C132.156 186.26 132.572 186.364 133.036 186.364C133.484 186.364 133.892 186.256 134.26 186.04C134.636 185.824 134.932 185.516 135.148 185.116C135.364 184.716 135.472 184.252 135.472 183.724ZM138.65 179.212C138.482 179.212 138.338 179.152 138.218 179.032C138.098 178.912 138.038 178.764 138.038 178.588C138.038 178.412 138.098 178.268 138.218 178.156C138.338 178.036 138.482 177.976 138.65 177.976C138.818 177.976 138.962 178.036 139.082 178.156C139.202 178.268 139.262 178.412 139.262 178.588C139.262 178.764 139.202 178.912 139.082 179.032C138.962 179.152 138.818 179.212 138.65 179.212ZM139.07 180.448V187H138.23V180.448H139.07ZM143.84 187.096C143.224 187.096 142.668 186.96 142.172 186.688C141.684 186.408 141.296 186.016 141.008 185.512C140.728 185 140.588 184.404 140.588 183.724C140.588 183.044 140.732 182.452 141.02 181.948C141.308 181.436 141.7 181.044 142.196 180.772C142.692 180.492 143.248 180.352 143.864 180.352C144.48 180.352 145.036 180.492 145.532 180.772C146.036 181.044 146.428 181.436 146.708 181.948C146.996 182.452 147.14 183.044 147.14 183.724C147.14 184.396 146.996 184.988 146.708 185.5C146.42 186.012 146.024 186.408 145.52 186.688C145.016 186.96 144.456 187.096 143.84 187.096ZM143.84 186.364C144.272 186.364 144.672 186.268 145.04 186.076C145.408 185.876 145.704 185.58 145.928 185.188C146.16 184.788 146.276 184.3 146.276 183.724C146.276 183.148 146.164 182.664 145.94 182.272C145.716 181.872 145.42 181.576 145.052 181.384C144.684 181.184 144.284 181.084 143.852 181.084C143.42 181.084 143.02 181.184 142.652 181.384C142.284 181.576 141.988 181.872 141.764 182.272C141.548 182.664 141.44 183.148 141.44 183.724C141.44 184.3 141.548 184.788 141.764 185.188C141.988 185.58 142.28 185.876 142.64 186.076C143.008 186.268 143.408 186.364 143.84 186.364ZM148.815 187.06C148.639 187.06 148.491 187 148.371 186.88C148.259 186.76 148.203 186.612 148.203 186.436C148.203 186.26 148.259 186.116 148.371 186.004C148.491 185.884 148.639 185.824 148.815 185.824C148.983 185.824 149.123 185.884 149.235 186.004C149.355 186.116 149.415 186.26 149.415 186.436C149.415 186.612 149.355 186.76 149.235 186.88C149.123 187 148.983 187.06 148.815 187.06ZM150.467 183.724C150.467 183.044 150.603 182.452 150.875 181.948C151.147 181.436 151.523 181.044 152.003 180.772C152.483 180.492 153.031 180.352 153.647 180.352C154.455 180.352 155.119 180.552 155.639 180.952C156.167 181.352 156.507 181.896 156.659 182.584H155.759C155.647 182.112 155.403 181.744 155.027 181.48C154.659 181.208 154.199 181.072 153.647 181.072C153.207 181.072 152.811 181.172 152.459 181.372C152.107 181.572 151.827 181.872 151.619 182.272C151.419 182.664 151.319 183.148 151.319 183.724C151.319 184.3 151.419 184.788 151.619 185.188C151.827 185.588 152.107 185.888 152.459 186.088C152.811 186.288 153.207 186.388 153.647 186.388C154.199 186.388 154.659 186.256 155.027 185.992C155.403 185.72 155.647 185.344 155.759 184.864H156.659C156.507 185.536 156.167 186.076 155.639 186.484C155.111 186.892 154.447 187.096 153.647 187.096C153.031 187.096 152.483 186.96 152.003 186.688C151.523 186.408 151.147 186.016 150.875 185.512C150.603 185 150.467 184.404 150.467 183.724ZM161.078 187.096C160.462 187.096 159.906 186.96 159.41 186.688C158.922 186.408 158.534 186.016 158.246 185.512C157.966 185 157.826 184.404 157.826 183.724C157.826 183.044 157.97 182.452 158.258 181.948C158.546 181.436 158.938 181.044 159.434 180.772C159.93 180.492 160.486 180.352 161.102 180.352C161.718 180.352 162.274 180.492 162.77 180.772C163.274 181.044 163.666 181.436 163.946 181.948C164.234 182.452 164.378 183.044 164.378 183.724C164.378 184.396 164.234 184.988 163.946 185.5C163.658 186.012 163.262 186.408 162.758 186.688C162.254 186.96 161.694 187.096 161.078 187.096ZM161.078 186.364C161.51 186.364 161.91 186.268 162.278 186.076C162.646 185.876 162.942 185.58 163.166 185.188C163.398 184.788 163.514 184.3 163.514 183.724C163.514 183.148 163.402 182.664 163.178 182.272C162.954 181.872 162.658 181.576 162.29 181.384C161.922 181.184 161.522 181.084 161.09 181.084C160.658 181.084 160.258 181.184 159.89 181.384C159.522 181.576 159.226 181.872 159.002 182.272C158.786 182.664 158.678 183.148 158.678 183.724C158.678 184.3 158.786 184.788 159.002 185.188C159.226 185.58 159.518 185.876 159.878 186.076C160.246 186.268 160.646 186.364 161.078 186.364ZM173.709 180.328C174.477 180.328 175.101 180.572 175.581 181.06C176.069 181.54 176.313 182.24 176.313 183.16V187H175.485V183.256C175.485 182.544 175.313 182 174.969 181.624C174.625 181.248 174.157 181.06 173.565 181.06C172.949 181.06 172.457 181.264 172.089 181.672C171.721 182.08 171.537 182.672 171.537 183.448V187H170.709V183.256C170.709 182.544 170.537 182 170.193 181.624C169.849 181.248 169.377 181.06 168.777 181.06C168.161 181.06 167.669 181.264 167.301 181.672C166.933 182.08 166.749 182.672 166.749 183.448V187H165.909V180.448H166.749V181.576C166.957 181.168 167.253 180.86 167.637 180.652C168.021 180.436 168.449 180.328 168.921 180.328C169.489 180.328 169.985 180.464 170.409 180.736C170.841 181.008 171.153 181.408 171.345 181.936C171.521 181.416 171.821 181.02 172.245 180.748C172.677 180.468 173.165 180.328 173.709 180.328ZM178.323 187.06C178.147 187.06 177.999 187 177.879 186.88C177.767 186.76 177.711 186.612 177.711 186.436C177.711 186.26 177.767 186.116 177.879 186.004C177.999 185.884 178.147 185.824 178.323 185.824C178.491 185.824 178.631 185.884 178.743 186.004C178.863 186.116 178.923 186.26 178.923 186.436C178.923 186.612 178.863 186.76 178.743 186.88C178.631 187 178.491 187.06 178.323 187.06ZM180.502 187.06C180.326 187.06 180.178 187 180.058 186.88C179.946 186.76 179.89 186.612 179.89 186.436C179.89 186.26 179.946 186.116 180.058 186.004C180.178 185.884 180.326 185.824 180.502 185.824C180.67 185.824 180.81 185.884 180.922 186.004C181.042 186.116 181.102 186.26 181.102 186.436C181.102 186.612 181.042 186.76 180.922 186.88C180.81 187 180.67 187.06 180.502 187.06ZM182.682 187.06C182.506 187.06 182.358 187 182.238 186.88C182.126 186.76 182.07 186.612 182.07 186.436C182.07 186.26 182.126 186.116 182.238 186.004C182.358 185.884 182.506 185.824 182.682 185.824C182.85 185.824 182.99 185.884 183.102 186.004C183.222 186.116 183.282 186.26 183.282 186.436C183.282 186.612 183.222 186.76 183.102 186.88C182.99 187 182.85 187.06 182.682 187.06Z" fill="#1A1E23"/>
<rect x="24" y="201" width="232" height="1" fill="#EAEDF0"/>
<rect x="24" y="210" width="100" height="12" rx="6" fill="#D6DAE1"/>
<path d="M202.539 201.417C202.609 201.736 202.776 202.025 203.016 202.246C203.256 202.467 203.558 202.61 203.881 202.655C204.205 202.699 204.534 202.644 204.825 202.496C205.116 202.349 205.355 202.115 205.509 201.828L208.296 197.704L214.839 204.247C214.971 204.379 215.128 204.484 215.3 204.555C215.473 204.627 215.658 204.663 215.845 204.663C216.031 204.663 216.216 204.627 216.389 204.555C216.562 204.484 216.718 204.379 216.851 204.247L218.247 202.851C218.379 202.719 218.483 202.562 218.555 202.389C218.626 202.217 218.663 202.032 218.663 201.845C218.663 201.658 218.626 201.473 218.555 201.3C218.483 201.128 218.379 200.971 218.247 200.839L211.704 194.296L215.855 191.509C216.142 191.355 216.375 191.116 216.523 190.825C216.67 190.533 216.726 190.204 216.681 189.881C216.636 189.558 216.493 189.256 216.272 189.016C216.051 188.776 215.761 188.609 215.443 188.539L197.333 183.333L202.539 201.417Z" fill="white" stroke="#1A1E23" stroke-width="1.5" stroke-linecap="round" stroke-linejoin="round"/>
<path d="M8.5 80C8.5 73.6487 13.6487 68.5 20 68.5H260C266.351 68.5 271.5 73.6487 271.5 80V237.5H8.5V80Z" stroke="#EAEDF0"/>
</g>
<defs>
<linearGradient id="paint0_linear_9654_110270" x1="0" y1="0" x2="307.586" y2="278.97" gradientUnits="userSpaceOnUse">
<stop stop-color="white" stop-opacity="0.4"/>
<stop offset="1" stop-color="white" stop-opacity="0.1"/>
</linearGradient>
<clipPath id="clip0_9654_110270">
<rect width="352" height="230" rx="16" fill="white"/>
</clipPath>
<clipPath id="clip1_9654_110270">
<rect width="16" height="16" fill="white" transform="translate(8 6)"/>
</clipPath>
</defs>
</svg>
