<svg width="48" height="48" viewBox="0 0 48 48" fill="none" xmlns="http://www.w3.org/2000/svg">
<path d="M24 0C10.745 0 0 10.745 0 24C0 37.255 10.745 48 24 48C37.255 48 48 37.2547 48 24C48 10.7452 37.2548 0 24 0ZM17.6086 10.0713L20.0507 12.5139L17.6086 14.9562L15.1662 12.5139L17.6086 10.0713ZM32.4213 35.4718H29.6219V25.4174L24.3085 30.849L18.9918 25.4174V35.4718H16.1923V17.9231H18.9918V21.7511L24.3068 27.1285L29.6219 21.7511V17.9231H32.4213L32.4213 35.4718ZM31.0056 14.9562L28.5633 12.5139L31.0056 10.0713L33.4479 12.5139L31.0056 14.9562Z" fill="#00AF91"/>
</svg>
