<svg width="20" height="21" viewBox="0 0 20 21" fill="none" xmlns="http://www.w3.org/2000/svg">
<rect x="8.33325" y="5.5" width="3.33333" height="10" fill="white"/>
<path d="M10.0001 2.16667C14.6026 2.16667 18.3334 5.89751 18.3334 10.5C18.3351 12.6879 17.4764 14.7887 15.9425 16.3489C14.4086 17.909 12.3227 18.8034 10.1351 18.8388C7.94749 18.8743 5.8337 18.048 4.25008 16.5383C2.66646 15.0287 1.74007 12.9568 1.67091 10.77L1.66675 10.5L1.67008 10.2667C1.79341 5.77251 5.47508 2.16667 10.0001 2.16667ZM10.0084 13L9.90258 13.0058C9.70004 13.0299 9.51337 13.1275 9.37793 13.28C9.24248 13.4325 9.16768 13.6294 9.16768 13.8333C9.16768 14.0373 9.24248 14.2342 9.37793 14.3867C9.51337 14.5392 9.70004 14.6367 9.90258 14.6608L10.0001 14.6667L10.1059 14.6608C10.3085 14.6367 10.4951 14.5392 10.6306 14.3867C10.766 14.2342 10.8408 14.0373 10.8408 13.8333C10.8408 13.6294 10.766 13.4325 10.6306 13.28C10.4951 13.1275 10.3085 13.0299 10.1059 13.0058L10.0084 13ZM10.0001 6.33334C9.79597 6.33337 9.59897 6.4083 9.44644 6.54393C9.29391 6.67957 9.19646 6.86646 9.17258 7.06917L9.16675 7.16667V10.5L9.17258 10.5975C9.19667 10.8 9.29421 10.9867 9.44672 11.1222C9.59923 11.2576 9.79611 11.3324 10.0001 11.3324C10.2041 11.3324 10.4009 11.2576 10.5534 11.1222C10.706 10.9867 10.8035 10.8 10.8276 10.5975L10.8334 10.5V7.16667L10.8276 7.06917C10.8037 6.86646 10.7063 6.67957 10.5537 6.54393C10.4012 6.4083 10.2042 6.33337 10.0001 6.33334Z" fill="#E3715C"/>
</svg>
