<svg width="33" height="32" viewBox="0 0 33 32" fill="none" xmlns="http://www.w3.org/2000/svg">
<path d="M7.16667 9.33334H8.5C9.20724 9.33334 9.88552 9.05239 10.3856 8.55229C10.8857 8.0522 11.1667 7.37392 11.1667 6.66668C11.1667 6.31305 11.3071 5.97392 11.5572 5.72387C11.8072 5.47382 12.1464 5.33334 12.5 5.33334H20.5C20.8536 5.33334 21.1928 5.47382 21.4428 5.72387C21.6929 5.97392 21.8333 6.31305 21.8333 6.66668C21.8333 7.37392 22.1143 8.0522 22.6144 8.55229C23.1145 9.05239 23.7928 9.33334 24.5 9.33334H25.8333C26.5406 9.33334 27.2189 9.61429 27.719 10.1144C28.219 10.6145 28.5 11.2928 28.5 12V24C28.5 24.7073 28.219 25.3855 27.719 25.8856C27.2189 26.3857 26.5406 26.6667 25.8333 26.6667H7.16667C6.45942 26.6667 5.78115 26.3857 5.28105 25.8856C4.78095 25.3855 4.5 24.7073 4.5 24V12C4.5 11.2928 4.78095 10.6145 5.28105 10.1144C5.78115 9.61429 6.45942 9.33334 7.16667 9.33334" stroke-linecap="round" stroke-linejoin="round"/>
<path d="M15.4933 21.2053C16.0848 21.3591 16.7036 21.3754 17.3023 21.2528C17.901 21.1302 18.4636 20.8721 18.9471 20.4982C19.4305 20.1244 19.8218 19.6447 20.091 19.0961C20.3602 18.5475 20.5001 17.9444 20.5 17.3333M17.5 13.46C16.9089 13.3074 16.2907 13.2921 15.6927 13.4153C15.0948 13.5385 14.533 13.7969 14.0504 14.1708C13.5677 14.5447 13.1771 15.0241 12.9084 15.5722C12.6396 16.1204 12.4999 16.7228 12.5 17.3333" stroke-linecap="round" stroke-linejoin="round"/>
<path d="M19.166 17.3333H21.8327V20" stroke-linecap="round" stroke-linejoin="round"/>
<path d="M13.8327 17.3333H11.166V14.6667" stroke-linecap="round" stroke-linejoin="round"/>
</svg>
