<svg width="32" height="32" viewBox="0 0 32 32" fill="none" xmlns="http://www.w3.org/2000/svg">
  <g clip-path="url(#clip0_11009_513)">
    <path
      d="M15.9009 0.00285909C15.9009 0.00285909 25.299 -0.420165 30.2799 9.0249H15.1018C15.1018 9.0249 12.2352 8.93062 9.79161 12.4084C9.08689 13.8653 8.3352 15.369 9.18089 18.3289C7.95922 16.2618 2.69611 7.09844 2.69611 7.09844C2.69611 7.09844 6.40881 0.378628 15.9009 0.00285909Z"
      fill="#C6352E"
    />
    <path
      d="M29.7907 23.9836C29.7907 23.9836 25.4568 32.3332 14.7864 31.9228C16.1028 29.6443 22.3773 18.7791 22.3773 18.7791C22.3773 18.7791 23.8922 16.3441 22.1034 12.4889C21.1941 11.1499 20.2681 9.74684 17.2815 8.99874C19.6834 8.97489 30.2498 9.00028 30.2498 9.00028C30.2498 9.00028 34.2122 15.5758 29.7907 23.9836Z"
      fill="#F4D911"
    />
    <path
      d="M2.078 24.047C2.078 24.047 -2.98571 16.118 2.70562 7.08307C4.02077 9.36241 10.292 20.2295 10.292 20.2295C10.292 20.2295 11.643 22.7589 15.8763 23.1376C17.49 23.0199 19.1685 22.9195 21.3097 20.7074C20.1292 22.799 14.8234 31.9374 14.8234 31.9374C14.8234 31.9374 7.14784 32.0805 2.078 24.047Z"
      fill="#81B354"
    />
    <path
      d="M14.7864 32L16.9215 23.0909C16.9215 23.0909 19.269 22.9077 21.236 20.7488C20.0149 22.8969 14.7864 32 14.7864 32Z"
      fill="#7BAA50"
    />
    <path
      d="M8.75049 16.0997C8.75049 12.1723 11.934 8.98846 15.8617 8.98846C19.7891 8.98846 22.9729 12.1722 22.9729 16.0997C22.9729 20.0273 19.7893 23.2112 15.8617 23.2112C11.934 23.2112 8.75049 20.0274 8.75049 16.0997Z"
      fill="white"
    />
    <path
      d="M9.94061 16.0997C9.94061 12.8298 12.5914 10.1789 15.8617 10.1789C19.1313 10.1789 21.7824 12.8298 21.7824 16.0997C21.7824 19.3697 19.1313 22.0208 15.8617 22.0208C12.5914 22.0209 9.94061 19.3695 9.94061 16.0997Z"
      fill="url(#paint0_linear_11009_513)"
    />
    <path
      d="M30.2498 9.00028L21.4585 11.5778C21.4585 11.5778 20.1328 9.63236 17.2814 8.99874C19.7521 8.99033 30.2498 9.00028 30.2498 9.00028Z"
      fill="#E7CE12"
    />
    <path
      d="M9.00995 18.0092C7.77445 15.8696 2.69641 7.09821 2.69641 7.09821L9.20884 13.5405C9.20884 13.5405 8.5396 14.9172 8.79335 16.8834L9.00995 18.0092Z"
      fill="#BC332C"
    />
  </g>
  <defs>
    <linearGradient
      id="paint0_linear_11009_513"
      x1="15.8615"
      y1="10.2627"
      x2="15.8615"
      y2="21.6665"
      gradientUnits="userSpaceOnUse"
    >
      <stop stop-color="#A2C0E6" />
      <stop offset="1" stop-color="#406CB1" />
    </linearGradient>
    <clipPath id="clip0_11009_513">
      <rect width="32" height="32" fill="white" />
    </clipPath>
  </defs>
</svg>
