<svg width="24" height="24" viewBox="0 0 24 24" fill="none" xmlns="http://www.w3.org/2000/svg">
<path d="M20.942 13.021C21.1466 11.2289 20.808 9.41657 19.9701 7.81921C19.1322 6.22186 17.8336 4.91314 16.2428 4.06281C14.652 3.21248 12.8424 2.85979 11.0487 3.05046C9.25504 3.24114 7.56004 3.9664 6.18357 5.13216C4.8071 6.29793 3.81268 7.85041 3.3293 9.58823C2.84592 11.326 2.89588 13.169 3.47271 14.8781C4.04954 16.5872 5.12661 18.0835 6.56422 19.173C8.00183 20.2624 9.73364 20.8948 11.535 20.988" stroke-linecap="round" stroke-linejoin="round"/>
<path d="M12 7V12L15 15" stroke-linecap="round" stroke-linejoin="round"/>
<path d="M15 19L17 21L21 17" stroke-linecap="round" stroke-linejoin="round"/>
</svg>
