<svg width="120" height="120" viewBox="0 0 120 120" fill="none" xmlns="http://www.w3.org/2000/svg">
<path d="M82.5 28.125C79.3945 28.125 76.875 30.6445 76.875 33.75C76.875 36.8555 79.3945 39.375 82.5 39.375C85.6055 39.375 88.125 36.8555 88.125 33.75C88.125 30.6445 85.6055 28.125 82.5 28.125Z" fill="url(#paint0_linear_4309_16435)"/>
<path d="M106.886 28.1104C105.718 27.4365 104.315 27.4292 103.143 28.0957L95.625 32.395V30C95.625 24.8291 91.4209 20.625 86.25 20.625H56.25C51.0791 20.625 46.875 24.8291 46.875 30V35.7166C26.5686 36.4783 16.2744 43.147 15.835 43.4399L15.4138 43.7183L15.1904 44.1724C15.033 44.4983 11.25 52.3572 11.25 67.5C11.25 82.6428 15.033 90.5017 15.1941 90.8276L15.4175 91.2781L15.835 91.5564C16.311 91.8787 27.821 99.375 50.625 99.375C73.429 99.375 84.939 91.8787 85.415 91.5601L85.8142 91.2927L86.0376 90.8679C86.1987 90.5566 90 83.0933 90 67.5C90 65.3394 89.9048 63.23 89.7583 61.1792C93.1897 59.7876 95.625 56.4258 95.625 52.5V50.105L103.143 54.375H103.147C103.729 54.375 104.363 54.8877 105.004 54.8877C105.652 54.8877 106.296 54.7229 106.886 54.3823C108.054 53.7048 108.75 52.5 108.75 51.1487V31.3513C108.75 30 108.054 28.7878 106.886 28.1104ZM56.25 61.875H61.2305C61.6553 63.0725 61.875 64.3286 61.875 65.625V71.25C61.875 77.4536 56.8286 82.5 50.625 82.5C44.4214 82.5 39.375 77.4536 39.375 71.25V65.625C39.375 60.6848 42.6489 56.3745 47.2302 54.917C48.3032 58.9124 51.9214 61.875 56.25 61.875ZM86.0486 61.875C86.1072 62.7466 86.1548 63.6182 86.1877 64.5154C85.0342 64.021 83.7817 63.75 82.5 63.75C77.3291 63.75 73.125 67.9541 73.125 73.125V76.875C73.125 78.3618 73.5022 79.7461 74.1211 80.9985C71.9678 82.2363 70.1074 83.9392 68.6829 85.9717C67.0166 83.7341 64.9329 81.8188 62.5415 80.321C64.4678 77.7979 65.625 74.6594 65.625 71.25V65.625C65.625 64.3433 65.4492 63.0908 65.1343 61.875H86.0486ZM76.875 76.875V73.125C76.875 70.0232 79.3982 67.5 82.5 67.5C83.8879 67.5 85.2026 68.042 86.2317 68.9612C86.1401 74.3921 85.5688 78.7024 84.906 81.9177C84.1553 82.2766 83.3386 82.5 82.5 82.5C79.3982 82.5 76.875 79.9768 76.875 76.875ZM18.3545 46.2964C20.4565 45.0806 30.0586 40.1257 46.875 39.4629V51.1084C40.3601 52.7966 35.625 58.7659 35.625 65.625V71.25C35.625 74.6594 36.7822 77.7979 38.7085 80.321C36.3208 81.8225 34.2334 83.7341 32.5708 85.9717C31.1462 83.9392 29.2859 82.2363 27.1289 80.9949C27.7478 79.7461 28.125 78.3618 28.125 76.875V73.125C28.125 67.9541 23.9209 63.75 18.75 63.75C17.4646 63.75 16.2122 64.021 15.0586 64.5154C15.4358 54.1516 17.6624 47.9736 18.3545 46.2964ZM15.0183 68.9575C16.0437 68.0383 17.3584 67.5 18.75 67.5C21.8518 67.5 24.375 70.0232 24.375 73.125V76.875C24.375 79.9768 21.8518 82.5 18.75 82.5C17.9224 82.5 17.124 82.2803 16.3843 81.9324C15.7068 78.6804 15.1135 74.3335 15.0183 68.9575ZM17.4609 86.1548C17.8857 86.217 18.3179 86.25 18.75 86.25C21.0645 86.25 23.1592 85.3748 24.7998 83.9758C27.1912 85.2246 29.1614 87.1985 30.4065 89.5898C29.8828 90.6592 29.425 91.7615 29.0808 92.9041C23.1482 91.2744 19.541 89.3884 18.3545 88.7036C18.1567 88.2239 17.8308 87.3633 17.4609 86.1548ZM32.7209 93.8049C34.1345 89.2896 37.2693 85.4224 41.4221 83.0713C43.9636 85.0562 47.1533 86.25 50.625 86.25C54.0967 86.25 57.2864 85.0562 59.8279 83.0713C63.9807 85.4224 67.1155 89.2859 68.5291 93.8049C63.717 94.8486 57.7478 95.625 50.625 95.625C43.5022 95.625 37.533 94.8486 32.7209 93.8049ZM72.1692 92.9077C71.825 91.7615 71.3672 90.6628 70.8435 89.5935C72.0886 87.1985 74.0588 85.2246 76.4502 83.9795C78.0908 85.3748 80.1855 86.25 82.5 86.25C82.9468 86.25 83.3899 86.2134 83.8257 86.1475C83.4485 87.3743 83.1116 88.2275 82.9102 88.6926C81.7383 89.3738 78.1274 91.2708 72.1692 92.9077ZM91.875 52.5C91.875 55.6018 89.3518 58.125 86.25 58.125H56.25C53.1482 58.125 50.625 55.6018 50.625 52.5V30C50.625 26.8982 53.1482 24.375 56.25 24.375H86.25C89.3518 24.375 91.875 26.8982 91.875 30V52.5ZM95.625 36.7126L97.5 35.6396V46.8567L95.625 45.7874V36.7126ZM105.004 51.145L101.25 49.0027V33.4973L105 31.3513L105.011 51.1523L105.004 51.145Z" fill="url(#paint1_linear_4309_16435)"/>
<path d="M50.625 78.75C53.7305 78.75 56.25 76.2305 56.25 73.125H45C45 76.2305 47.5195 78.75 50.625 78.75Z" fill="url(#paint2_linear_4309_16435)"/>
<defs>
<linearGradient id="paint0_linear_4309_16435" x1="82.5" y1="28.125" x2="82.5" y2="40.6256" gradientUnits="userSpaceOnUse">
<stop stop-color="#9ED1B8"/>
<stop offset="1" stop-color="#E4F2EA"/>
</linearGradient>
<linearGradient id="paint1_linear_4309_16435" x1="60" y1="20.0006" x2="60" y2="100.039" gradientUnits="userSpaceOnUse">
<stop stop-color="#52AD80"/>
<stop offset="1" stop-color="#98CDB2"/>
</linearGradient>
<linearGradient id="paint2_linear_4309_16435" x1="50.625" y1="20.0006" x2="50.625" y2="100.039" gradientUnits="userSpaceOnUse">
<stop stop-color="#52AD80"/>
<stop offset="1" stop-color="#98CDB2"/>
</linearGradient>
</defs>
</svg>
