<svg width="24" height="25" viewBox="0 0 24 25" fill="none" xmlns="http://www.w3.org/2000/svg">
<path d="M8 9C8 8.44772 8.44772 8 9 8H15C15.5523 8 16 8.44772 16 9V15C16 15.5523 15.5523 16 15 16H9C8.44772 16 8 15.5523 8 15V9Z" stroke-width="1.5" stroke-linecap="round" stroke-linejoin="round"/>
<path d="M4 4V4.01" stroke-width="1.5" stroke-linecap="round" stroke-linejoin="round"/>
<path d="M8 4V4.01" stroke-width="1.5" stroke-linecap="round" stroke-linejoin="round"/>
<path d="M12 4V4.01" stroke-width="1.5" stroke-linecap="round" stroke-linejoin="round"/>
<path d="M16 4V4.01" stroke-width="1.5" stroke-linecap="round" stroke-linejoin="round"/>
<path d="M20 4V4.01" stroke-width="1.5" stroke-linecap="round" stroke-linejoin="round"/>
<path d="M4 20V20.01" stroke-width="1.5" stroke-linecap="round" stroke-linejoin="round"/>
<path d="M8 20V20.01" stroke-width="1.5" stroke-linecap="round" stroke-linejoin="round"/>
<path d="M12 20V20.01" stroke-width="1.5" stroke-linecap="round" stroke-linejoin="round"/>
<path d="M16 20V20.01" stroke-width="1.5" stroke-linecap="round" stroke-linejoin="round"/>
<path d="M20 20V20.01" stroke-width="1.5" stroke-linecap="round" stroke-linejoin="round"/>
<path d="M20 16V16.01" stroke-width="1.5" stroke-linecap="round" stroke-linejoin="round"/>
<path d="M20 12V12.01" stroke-width="1.5" stroke-linecap="round" stroke-linejoin="round"/>
<path d="M20 8V8.01" stroke-width="1.5" stroke-linecap="round" stroke-linejoin="round"/>
<path d="M4 16V16.01" stroke-width="1.5" stroke-linecap="round" stroke-linejoin="round"/>
<path d="M4 12V12.01" stroke-width="1.5" stroke-linecap="round" stroke-linejoin="round"/>
<path d="M4 8V8.01" stroke-width="1.5" stroke-linecap="round" stroke-linejoin="round"/>
</svg>