<svg width="20" height="20" viewBox="0 0 20 20" fill="none" xmlns="http://www.w3.org/2000/svg">
<path d="M10 10.8333C10.4602 10.8333 10.8333 10.4602 10.8333 10C10.8333 9.53976 10.4602 9.16666 10 9.16666C9.53976 9.16666 9.16666 9.53976 9.16666 10C9.16666 10.4602 9.53976 10.8333 10 10.8333Z" stroke-linecap="round" stroke-linejoin="round"/>
<path d="M10 16.6667C10.4602 16.6667 10.8333 16.2936 10.8333 15.8333C10.8333 15.3731 10.4602 15 10 15C9.53976 15 9.16666 15.3731 9.16666 15.8333C9.16666 16.2936 9.53976 16.6667 10 16.6667Z" stroke-linecap="round" stroke-linejoin="round"/>
<path d="M10 5C10.4602 5 10.8333 4.62691 10.8333 4.16667C10.8333 3.70643 10.4602 3.33334 10 3.33334C9.53976 3.33334 9.16666 3.70643 9.16666 4.16667C9.16666 4.62691 9.53976 5 10 5Z" stroke-linecap="round" stroke-linejoin="round"/>
</svg>
