<svg width="24" height="24" viewBox="0 0 24 24" fill="none" xmlns="http://www.w3.org/2000/svg">
  <path
    d="M7 8C7 9.32608 7.52678 10.5979 8.46447 11.5355C9.40215 12.4732 10.6739 13 12 13C13.3261 13 14.5979 12.4732 15.5355 11.5355C16.4732 10.5979 17 9.32608 17 8C17 6.67392 16.4732 5.40215 15.5355 4.46447C14.5979 3.52678 13.3261 3 12 3C10.6739 3 9.40215 3.52678 8.46447 4.46447C7.52678 5.40215 7 6.67392 7 8Z"
    stroke-width="1.5"
    stroke-linecap="round"
    stroke-linejoin="round"
  />
  <path
    d="M8 11C6.8735 11.0001 5.78003 11.3805 4.89679 12.0797C4.01356 12.7789 3.39231 13.7559 3.13374 14.8523C2.87518 15.9488 2.99443 17.1004 3.47219 18.1205C3.94994 19.1407 4.7582 19.9696 5.76597 20.473C6.77374 20.9764 7.92197 21.1247 9.02458 20.894C10.1272 20.6632 11.1195 20.0668 11.8408 19.2015C12.5622 18.3362 12.9701 17.2527 12.9986 16.1266C13.0272 15.0005 12.6746 13.8977 11.998 12.997"
    stroke-width="1.5"
    stroke-linecap="round"
    stroke-linejoin="round"
  />
  <path
    d="M12.002 19.003C12.5137 19.6843 13.1911 20.2235 13.9699 20.5694C14.7486 20.9154 15.6028 21.0565 16.4515 20.9795C17.3001 20.9026 18.115 20.61 18.8187 20.1295C19.5225 19.6491 20.0918 18.9968 20.4726 18.2345C20.8534 17.4722 21.0331 16.6253 20.9946 15.774C20.9561 14.9228 20.7007 14.0955 20.2526 13.3707C19.8045 12.6459 19.1786 12.0477 18.4343 11.6328C17.69 11.2179 16.8521 11 16 11"
    stroke-width="1.5"
    stroke-linecap="round"
    stroke-linejoin="round"
  />
</svg>
