<svg width="32" height="32" viewBox="0 0 32 32" fill="none" xmlns="http://www.w3.org/2000/svg">
<path d="M20.001 4V9.33333C20.001 9.68696 20.1415 10.0261 20.3915 10.2761C20.6415 10.5262 20.9807 10.6667 21.3343 10.6667H26.6676" stroke-linecap="round" stroke-linejoin="round"/>
<path d="M24.001 22.6667H14.6676C13.9604 22.6667 13.2821 22.3857 12.782 21.8856C12.2819 21.3855 12.001 20.7072 12.001 20V6.66667C12.001 5.95942 12.2819 5.28115 12.782 4.78105C13.2821 4.28095 13.9604 4 14.6676 4H20.001L26.6676 10.6667V20C26.6676 20.7072 26.3867 21.3855 25.8866 21.8856C25.3865 22.3857 24.7082 22.6667 24.001 22.6667Z" stroke-linecap="round" stroke-linejoin="round"/>
<path d="M21.3346 22.6667V25.3333C21.3346 26.0406 21.0537 26.7189 20.5536 27.219C20.0535 27.7191 19.3752 28 18.668 28H9.33464C8.62739 28 7.94911 27.7191 7.44902 27.219C6.94892 26.7189 6.66797 26.0406 6.66797 25.3333V12C6.66797 11.2928 6.94892 10.6145 7.44902 10.1144C7.94911 9.61429 8.62739 9.33334 9.33464 9.33334H12.0013" stroke-linecap="round" stroke-linejoin="round"/>
</svg>
