<svg width="20" height="20" viewBox="0 0 20 20" fill="none" xmlns="http://www.w3.org/2000/svg">
<path d="M12.5 15.8333V14.1667C12.5 13.7246 12.6756 13.3007 12.9882 12.9882C13.3007 12.6756 13.7246 12.5 14.1667 12.5H15.8333" stroke-linecap="round" stroke-linejoin="round"/>
<path d="M12.5 4.16663V5.83329C12.5 6.27532 12.6756 6.69924 12.9882 7.0118C13.3007 7.32436 13.7246 7.49996 14.1667 7.49996H15.8333" stroke-linecap="round" stroke-linejoin="round"/>
<path d="M4.16669 12.5H5.83335C6.27538 12.5 6.6993 12.6756 7.01186 12.9882C7.32443 13.3007 7.50002 13.7246 7.50002 14.1667V15.8333" stroke-linecap="round" stroke-linejoin="round"/>
<path d="M4.16669 7.49996H5.83335C6.27538 7.49996 6.6993 7.32436 7.01186 7.0118C7.32443 6.69924 7.50002 6.27532 7.50002 5.83329V4.16663" stroke-linecap="round" stroke-linejoin="round"/>
</svg>
