<svg width="24" height="24" viewBox="0 0 24 24" fill="none" xmlns="http://www.w3.org/2000/svg">
<path d="M1.63641 21.3614H5.45456V12.0886L0 7.99768V19.7251C0 20.6292 0.732281 21.3615 1.63641 21.3615V21.3614Z" fill="#4285F4"/>
<path d="M18.5454 21.3613H22.3636C23.2676 21.3613 23.9999 20.629 23.9999 19.725V7.99768L18.5454 12.0886V21.3613Z" fill="#34A853"/>
<path d="M18.5454 4.99767V12.0885L23.9999 7.99763V5.81586C23.9999 3.79361 21.6913 2.63862 20.0727 3.85225L18.5454 4.99767Z" fill="#FBBC04"/>
<path fill-rule="evenodd" clip-rule="evenodd" d="M5.45459 12.0886V4.99768L12 9.90681L18.5455 4.99768V12.0886L12 16.9977L5.45459 12.0886Z" fill="#EA4335"/>
<path d="M0 5.81587V7.99765L5.45456 12.0885V4.99768L3.92728 3.85225C2.30859 2.63862 0 3.79361 0 5.81578V5.81587Z" fill="#C5221F"/>
</svg>
