<svg width="16" height="16" viewBox="0 0 16 16" fill="none" xmlns="http://www.w3.org/2000/svg">
<path d="M7.9987 1.33334C11.6807 1.33334 14.6654 4.31801 14.6654 8.00001C14.6667 9.75033 13.9797 11.431 12.7526 12.6791C11.5255 13.9272 9.8568 14.6427 8.10671 14.6711C6.35663 14.6994 4.66559 14.0384 3.3987 12.8307C2.1318 11.623 1.39069 9.96545 1.33536 8.21601L1.33203 8.00001L1.3347 7.81334C1.43336 4.21801 4.3787 1.33334 7.9987 1.33334ZM7.9987 10C7.83541 10 7.67781 10.06 7.55578 10.1685C7.43376 10.277 7.3558 10.4265 7.3367 10.5887L7.33203 10.6667L7.3367 10.7513C7.35597 10.9134 7.434 11.0627 7.55601 11.1711C7.67801 11.2794 7.83552 11.3393 7.9987 11.3393C8.16187 11.3393 8.31938 11.2794 8.44139 11.1711C8.56339 11.0627 8.64142 10.9134 8.6607 10.7513L8.66536 10.6733L8.6607 10.5887C8.64159 10.4265 8.56364 10.277 8.44161 10.1685C8.31959 10.06 8.16199 10 7.9987 10ZM8.9107 5.55134C8.51162 5.34732 8.05528 5.28424 7.61582 5.37235C7.17637 5.46046 6.77961 5.69458 6.49003 6.03668C6.37962 6.16601 6.32281 6.33265 6.33122 6.5025C6.33963 6.67234 6.41263 6.83256 6.53528 6.95035C6.65793 7.06815 6.82095 7.13462 6.991 7.13617C7.16105 7.13771 7.32526 7.07422 7.45003 6.95868L7.56403 6.83868C7.66238 6.7484 7.78603 6.69042 7.91834 6.67254C8.05064 6.65466 8.18524 6.67774 8.30403 6.73868C8.43209 6.80349 8.53581 6.90789 8.59978 7.03637C8.66375 7.16485 8.68455 7.31054 8.65908 7.45178C8.63362 7.59303 8.56326 7.72228 8.45845 7.82034C8.35364 7.91839 8.21999 7.98 8.07736 7.99601L7.9227 8.00401C7.75314 8.02267 7.59718 8.10561 7.48692 8.23577C7.37666 8.36594 7.32049 8.53341 7.32997 8.70373C7.33946 8.87405 7.41387 9.03426 7.53789 9.15138C7.66191 9.2685 7.82611 9.33362 7.9967 9.33334C8.44645 9.3347 8.88353 9.18442 9.23735 8.90678C9.59118 8.62913 9.84109 8.24034 9.94674 7.80317C10.0524 7.366 10.0076 6.90599 9.81963 6.4974C9.63164 6.08882 9.31143 5.75553 8.9107 5.55134Z"/>
</svg>
