<svg width="129" height="24" viewBox="0 0 129 24" fill="none" xmlns="http://www.w3.org/2000/svg">
  <path
    d="M16.036 13.8919V23.6036H12.5045V13.3874C12.5045 10.4144 10.955 8.64864 8.57658 8.64864C6.05406 8.64864 3.53153 10.1081 3.53153 13.8919V23.6036H0V6.73873L3.53153 5.60359V8.30629C4.50451 6.30629 7.06307 5.4054 8.54055 5.29729C9.24325 5.26125 9.8919 5.29729 10.5225 5.4054C12.8108 5.74774 14.3964 6.95495 15.2613 8.91891C16.937 5.71171 19.7658 5.22522 21.5496 5.22522C26.0901 5.22522 28.5406 8.16215 28.5406 13.2072V23.6216H25.009V13.4414C25.009 10.4685 23.4595 8.66665 20.8649 8.66665C17.8559 8.59458 16.036 10.8829 16.036 13.8919Z"
  />
  <path
    d="M47.5676 13.1893C47.1352 10.1803 44.973 8.36043 42.0541 8.36043C39.0631 8.36043 36.7388 10.1803 36.3064 13.1893H47.5676ZM51.0271 15.928H36.3244C36.7568 18.937 39.1172 20.8289 42.1802 20.8289C44.3604 20.8289 46.3784 19.8199 47.3874 18.0541C48.3244 18.4325 49.4415 18.8289 50.4145 19.2073C48.8649 22.3785 45.5676 23.9821 42.0721 23.9821C36.919 23.9821 32.7928 20.2343 32.7928 14.5406C32.7928 8.84692 36.901 5.20728 42.0721 5.20728C47.2253 5.20728 51.0811 8.8289 51.0811 14.5406C51.0631 14.9731 51.0631 15.5496 51.0271 15.928Z"
  />
  <path
    d="M69.4235 13.1893C68.991 10.1803 66.8289 8.36043 63.91 8.36043C60.919 8.36043 58.5946 10.1803 58.1622 13.1893H69.4235ZM72.8829 15.928H58.1802C58.6126 18.937 60.973 20.8289 64.0361 20.8289C66.2163 20.8289 68.2343 19.8199 69.2433 18.0541C70.1802 18.4325 71.2973 18.8289 72.2703 19.2073C70.7208 22.3785 67.4235 23.9821 63.928 23.9821C58.7748 23.9821 54.6487 20.2343 54.6487 14.5406C54.6487 8.84692 58.7568 5.20728 63.928 5.20728C69.0811 5.20728 72.937 8.8289 72.937 14.5406C72.919 14.9731 72.919 15.5496 72.8829 15.928Z"
  />
  <path
    d="M86.1083 8.63063C82.847 8.63063 80.2524 10.9369 80.2524 14.5405C80.2524 18.0901 82.847 20.5586 86.1083 20.5586C89.2974 20.5586 92.1263 18.3604 92.1263 14.5405C92.1263 10.6847 89.0272 8.63063 86.1083 8.63063ZM92.1623 20.8288C90.9551 22.8649 88.3245 24 85.802 24C80.829 24 76.6488 20.3063 76.6488 14.5946C76.6488 8.84685 80.7929 5.22523 85.7659 5.22523C88.4506 5.22523 90.9731 6.27027 92.1623 8.3063V1.13513L95.6938 0V23.6216H92.1623V20.8288Z"
  />
  <path d="M104.937 5.4054L101.442 6.54053V23.6037H104.937V5.4054Z" />
  <path
    d="M124.703 14.5406C124.703 10.919 121.982 8.6307 118.721 8.6307C115.459 8.6307 112.739 10.901 112.739 14.5406C112.739 18.1983 115.459 20.5947 118.721 20.5947C121.982 20.5947 124.703 18.1983 124.703 14.5406ZM109.243 14.5406C109.243 8.8289 113.549 5.20728 118.721 5.20728C123.874 5.20728 128.234 8.8289 128.234 14.5406C128.234 20.2523 123.892 23.9821 118.721 23.9821C113.549 23.9821 109.243 20.2523 109.243 14.5406Z"
  />
</svg>
