<svg width="20" height="21" viewBox="0 0 20 21" fill="none" xmlns="http://www.w3.org/2000/svg">
<path d="M2.5 17.1667L3.58333 13.9167C2.64704 12.5319 2.30833 10.892 2.63018 9.30191C2.95204 7.71182 3.91255 6.27972 5.33314 5.27189C6.75373 4.26406 8.53772 3.74908 10.3534 3.82269C12.1691 3.89631 13.8929 4.55352 15.2044 5.67213C16.5159 6.79073 17.3257 8.29461 17.4834 9.90415C17.6411 11.5137 17.1358 13.1194 16.0616 14.4226C14.9873 15.7259 13.4172 16.638 11.6432 16.9895C9.86911 17.3409 8.01184 17.1077 6.41667 16.3333L2.5 17.1667" stroke-linecap="round" stroke-linejoin="round"/>
<path d="M10 10.5V10.5083" stroke-linecap="round" stroke-linejoin="round"/>
<path d="M6.66663 10.5V10.5083" stroke-linecap="round" stroke-linejoin="round"/>
<path d="M13.3334 10.5V10.5083" stroke-linecap="round" stroke-linejoin="round"/>
</svg>
