<svg width="32" height="32" viewBox="0 0 32 32" fill="none" xmlns="http://www.w3.org/2000/svg">
  <path d="M4 3.99902L28 27.999" stroke-linecap="round" stroke-linejoin="round" />
  <path
    d="M12 6.66553C12 5.60466 12.4214 4.58725 13.1716 3.8371C13.9217 3.08695 14.9391 2.66553 16 2.66553C17.0609 2.66553 18.0783 3.08695 18.8284 3.8371C19.5786 4.58725 20 5.60466 20 6.66553V13.3322C20.0001 13.7271 19.9416 14.1198 19.8267 14.4975M17.16 17.1642C16.5622 17.3453 15.9304 17.384 15.315 17.277C14.6996 17.17 14.1178 16.9204 13.6162 16.5482C13.1147 16.176 12.7072 15.6914 12.4266 15.1334C12.1459 14.5754 11.9998 13.9595 12 13.3349V12.0015"
    stroke-linecap="round"
    stroke-linejoin="round"
  />
  <path
    d="M6.66666 13.3325C6.66636 15.017 7.12194 16.6701 7.98507 18.1166C8.84821 19.5631 10.0867 20.7491 11.5693 21.5488C13.0518 22.3484 14.7232 22.7319 16.406 22.6586C18.0889 22.5854 19.7206 22.058 21.128 21.1325M23.7973 18.4659C24.8024 16.9428 25.3366 15.1574 25.3333 13.3325"
    stroke-linecap="round"
    stroke-linejoin="round"
  />
  <path d="M10.6667 27.999H21.3333" stroke-linecap="round" stroke-linejoin="round" />
  <path d="M16 22.6655V27.9989" stroke-linecap="round" stroke-linejoin="round" />
</svg>
