<svg width="24" height="24" viewBox="0 0 24 24" fill="none" xmlns="http://www.w3.org/2000/svg">
<path d="M20.7008 1.43823H8.33822C8.07045 1.43823 7.81366 1.5446 7.62432 1.73394C7.43498 1.92328 7.32861 2.18008 7.32861 2.44785V3.59553L14.2966 5.75283L21.7104 3.59553V2.44785C21.7104 2.18008 21.6041 1.92328 21.4147 1.73394C21.2254 1.5446 20.9686 1.43823 20.7008 1.43823Z" fill="#0364B8"/>
<path d="M22.8972 12.5159C23.0026 12.1849 23.0866 11.8474 23.1489 11.5056C23.1488 11.4216 23.1266 11.3392 23.0846 11.2665C23.0426 11.1938 22.9822 11.1334 22.9094 11.0914L22.9001 11.0856L22.8972 11.0842L15.1037 6.64448C15.0701 6.62266 15.0352 6.60274 14.9994 6.5848C14.8503 6.5108 14.6862 6.47229 14.5198 6.47229C14.3533 6.47229 14.1892 6.5108 14.0401 6.5848C14.0043 6.60249 13.9695 6.62218 13.9359 6.64376L6.14231 11.0849L6.13943 11.0864L6.1308 11.0914C6.05795 11.1333 5.9974 11.1936 5.95524 11.2663C5.91308 11.339 5.8908 11.4216 5.89062 11.5056C5.95292 11.8474 6.03698 12.1849 6.14231 12.5159L14.4061 18.56L22.8972 12.5159Z" fill="#0A2767"/>
<path d="M17.3961 3.59546H12.3625L10.9092 5.75276L12.3625 7.91006L17.3961 12.2247H21.7107V7.91006L17.3961 3.59546Z" fill="#28A8EA"/>
<path d="M7.32861 3.59546H12.3621V7.91006H7.32861V3.59546Z" fill="#0078D4"/>
<path d="M17.396 3.59546H21.7105V7.91006H17.396V3.59546Z" fill="#50D9FF"/>
<path d="M17.3959 12.2248L12.3622 7.91016H7.32861V12.2248L12.3622 16.5394L20.1514 17.8107L17.3959 12.2248Z" fill="#0364B8"/>
<path d="M12.3623 7.91016H17.3961V12.2248H12.3623V7.91016Z" fill="#0078D4"/>
<path d="M7.32861 12.2246H12.3621V16.5392H7.32861V12.2246Z" fill="#064A8C"/>
<path d="M17.396 12.2246H21.7105V16.5392H17.396V12.2246Z" fill="#0078D4"/>
<path opacity="0.5" d="M14.6562 18.1342L6.17578 11.9499L6.53174 11.3243C6.53174 11.3243 14.2585 15.7252 14.3765 15.7914C14.4247 15.8107 14.4764 15.8199 14.5284 15.8184C14.5803 15.8169 14.6314 15.8048 14.6785 15.7827L22.5405 11.3027L22.8971 11.9276L14.6562 18.1342Z" fill="#0A2767"/>
<path d="M22.9093 11.9205L22.8992 11.9263L22.8971 11.9277L15.1036 16.3675C14.9488 16.4673 14.771 16.5257 14.5872 16.5371C14.4034 16.5486 14.2197 16.5127 14.0537 16.4329L16.7676 20.0723L22.7029 21.3645V21.3674C22.841 21.2675 22.9534 21.1363 23.0309 20.9845C23.1084 20.8328 23.1488 20.6648 23.1488 20.4944V11.5056C23.1488 11.5897 23.1267 11.6723 23.0846 11.7452C23.0426 11.818 22.9821 11.8785 22.9093 11.9205Z" fill="#1490DF"/>
<path opacity="0.05" d="M23.1488 20.4943V19.9636L15.9701 15.8734L15.1036 16.3674C14.9488 16.4672 14.771 16.5257 14.5872 16.5371C14.4034 16.5486 14.2197 16.5127 14.0537 16.4329L16.7676 20.0722L22.7029 21.3644V21.3673C22.841 21.2674 22.9534 21.1362 23.0309 20.9844C23.1084 20.8327 23.1488 20.6647 23.1488 20.4943Z" fill="black"/>
<path opacity="0.1" d="M23.1129 20.7697L15.2438 16.2876L15.1036 16.3667C14.9489 16.4666 14.7711 16.5252 14.5873 16.5368C14.4035 16.5483 14.2198 16.5126 14.0537 16.4329L16.7676 20.0722L22.703 21.3644V21.3673C22.9043 21.2215 23.0491 21.0107 23.1129 20.7705V20.7697Z" fill="black"/>
<path d="M6.14184 11.9299V11.9227H6.13465L6.11308 11.9083C6.04434 11.8661 5.98768 11.8069 5.94861 11.7363C5.90955 11.6657 5.88941 11.5863 5.89016 11.5056V20.4943C5.88997 20.636 5.91774 20.7763 5.97188 20.9073C6.02602 21.0382 6.10547 21.1572 6.20567 21.2574C6.30587 21.3576 6.42485 21.437 6.55581 21.4912C6.68676 21.5453 6.82711 21.5731 6.96881 21.5729H22.07C22.1599 21.572 22.2492 21.5599 22.3361 21.5369C22.3812 21.5291 22.4248 21.5146 22.4655 21.4938C22.4808 21.4923 22.4956 21.4874 22.5087 21.4794C22.5675 21.4554 22.6231 21.4239 22.6741 21.3859C22.6885 21.3787 22.6956 21.3787 22.7028 21.3644L6.14184 11.9299Z" fill="#28A8EA"/>
<path opacity="0.1" d="M13.0816 17.738V5.99225C13.0809 5.73826 12.9796 5.49489 12.8 5.31529C12.6204 5.13568 12.3771 5.03445 12.1231 5.03369H7.3504V10.3953L6.14231 11.0842L6.13871 11.0856L6.13009 11.0907C6.05726 11.1327 5.99678 11.1932 5.95475 11.266C5.91271 11.3389 5.8906 11.4215 5.89063 11.5056V11.5092V11.5056V18.6966H12.1231C12.3771 18.6958 12.6204 18.5946 12.8 18.415C12.9796 18.2354 13.0809 17.992 13.0816 17.738Z" fill="black"/>
<path opacity="0.2" d="M12.3624 18.4571V6.71137C12.3616 6.45738 12.2604 6.214 12.0808 6.0344C11.9012 5.8548 11.6578 5.75357 11.4039 5.75281H7.35037V10.3953L6.14231 11.0842L6.13871 11.0857L6.13008 11.0907C6.05725 11.1327 5.99678 11.1932 5.95475 11.2661C5.91271 11.3389 5.8906 11.4215 5.89063 11.5056V11.5092V11.5056V19.4157H11.4039C11.6578 19.4149 11.9012 19.3137 12.0808 19.1341C12.2604 18.9545 12.3616 18.7111 12.3624 18.4571Z" fill="black"/>
<path opacity="0.2" d="M12.3624 17.0189V6.71137C12.3616 6.45738 12.2604 6.214 12.0808 6.0344C11.9012 5.8548 11.6578 5.75357 11.4039 5.75281H7.35037V10.3953L6.14231 11.0842L6.13871 11.0857L6.13008 11.0907C6.05725 11.1327 5.99678 11.1932 5.95475 11.2661C5.91271 11.3389 5.8906 11.4215 5.89063 11.5056V11.5092V11.5056V17.9775H11.4039C11.6578 17.9767 11.9012 17.8755 12.0808 17.6959C12.2604 17.5163 12.3616 17.2729 12.3624 17.0189Z" fill="black"/>
<path opacity="0.2" d="M11.6434 17.0189V6.71137C11.6427 6.45738 11.5414 6.214 11.3618 6.0344C11.1822 5.8548 10.9389 5.75357 10.6849 5.75281H7.3504V10.3953L6.14231 11.0842L6.13871 11.0857L6.13009 11.0907C6.05726 11.1327 5.99678 11.1932 5.95475 11.2661C5.91271 11.3389 5.8906 11.4215 5.89063 11.5056V11.5092V11.5056V17.9775H10.6849C10.9389 17.9767 11.1822 17.8755 11.3618 17.6959C11.5414 17.5163 11.6427 17.2729 11.6434 17.0189Z" fill="black"/>
<path d="M1.09626 5.75281H10.6847C10.939 5.75281 11.1828 5.8538 11.3625 6.03356C11.5423 6.21333 11.6433 6.45714 11.6433 6.71137V16.2998C11.6433 16.5541 11.5423 16.7979 11.3625 16.9777C11.1828 17.1574 10.939 17.2584 10.6847 17.2584H1.09626C0.84203 17.2584 0.598216 17.1574 0.418451 16.9777C0.238686 16.7979 0.137695 16.5541 0.137695 16.2998L0.137695 6.71137C0.137695 6.45714 0.238686 6.21333 0.418451 6.03356C0.598216 5.8538 0.84203 5.75281 1.09626 5.75281Z" fill="#0078D4"/>
<path d="M2.91836 9.68492C3.17307 9.14209 3.58426 8.68782 4.09912 8.38047C4.66953 8.05394 5.319 7.8912 5.97597 7.91018C6.5843 7.89698 7.18455 8.05121 7.71116 8.35602C8.20687 8.65129 8.6061 9.08424 8.86028 9.60222C9.13719 10.1732 9.27518 10.8015 9.26298 11.4359C9.2763 12.0986 9.13419 12.7552 8.84806 13.353C8.58835 13.8895 8.17708 14.338 7.66514 14.6431C7.11787 14.9576 6.49483 15.1161 5.86379 15.1012C5.24212 15.116 4.62828 14.96 4.08906 14.6503C3.58939 14.3546 3.18546 13.9212 2.92555 13.4019C2.64675 12.8394 2.50693 12.2183 2.51782 11.5905C2.50576 10.9332 2.6427 10.2817 2.91836 9.68492ZM4.17679 12.7468C4.31248 13.09 4.5426 13.3877 4.84052 13.6055C5.14409 13.8179 5.50775 13.9276 5.87818 13.9183C6.27279 13.9336 6.6617 13.8203 6.98631 13.5954C7.2809 13.3778 7.50518 13.0785 7.63134 12.7346C7.77281 12.3515 7.84252 11.9457 7.837 11.5373C7.84139 11.1251 7.77574 10.7151 7.64285 10.3249C7.52559 9.97386 7.30932 9.6642 7.02011 9.43323C6.70406 9.19702 6.31628 9.0769 5.92204 9.0931C5.54355 9.08353 5.17175 9.19404 4.85993 9.40878C4.55617 9.62691 4.32073 9.92694 4.1811 10.2739C3.87222 11.0692 3.87042 11.951 4.17607 12.7476L4.17679 12.7468Z" fill="white"/>
</svg>
