<svg width="24" height="24" viewBox="0 0 24 24" fill="none" xmlns="http://www.w3.org/2000/svg">
<path d="M11 19H5C4.46957 19 3.96086 18.7893 3.58579 18.4142C3.21071 18.0391 3 17.5304 3 17V7C3 6.46957 3.21071 5.96086 3.58579 5.58579C3.96086 5.21071 4.46957 5 5 5H19C19.5304 5 20.0391 5.21071 20.4142 5.58579C20.7893 5.96086 21 6.46957 21 7V11" stroke-linecap="round" stroke-linejoin="round"/>
<path d="M20 14H15C14.4477 14 14 14.4477 14 15V18C14 18.5523 14.4477 19 15 19H20C20.5523 19 21 18.5523 21 18V15C21 14.4477 20.5523 14 20 14Z" stroke-linecap="round" stroke-linejoin="round"/>
<path d="M7 9L11 13" stroke-linecap="round" stroke-linejoin="round"/>
<path d="M7 12V9H10" stroke-linecap="round" stroke-linejoin="round"/>
</svg>
