<svg width="20" height="20" viewBox="0 0 20 20" fill="none" xmlns="http://www.w3.org/2000/svg">
<path d="M10 17.5C10.6527 17.5005 11.3026 17.4159 11.9334 17.2483C13.4028 16.8574 14.7188 16.0292 15.7067 14.8733C16.6946 13.7174 17.3079 12.2885 17.4652 10.7761C17.6224 9.26368 17.3163 7.7392 16.5873 6.40478C15.8583 5.07035 14.741 3.98902 13.3834 3.30417C12.3724 2.79402 11.259 2.51943 10.1268 2.50099C8.99452 2.48255 7.87279 2.72074 6.84574 3.19769C5.81868 3.67465 4.91296 4.37797 4.19652 5.25492C3.48008 6.13187 2.97152 7.15966 2.70898 8.26121C2.44645 9.36275 2.43676 10.5094 2.68064 11.6153C2.92453 12.7211 3.41565 13.7573 4.11717 14.6463C4.81869 15.5352 5.7124 16.2537 6.73125 16.748C7.7501 17.2422 8.86764 17.4993 10 17.5Z" stroke="#1A1E23" stroke-width="1.5" stroke-linecap="round" stroke-linejoin="round"/>
<path d="M10 2.5V16.6667" stroke="#1A1E23" stroke-width="1.5" stroke-linecap="round" stroke-linejoin="round"/>
<path d="M10 10H17.5" stroke="#1A1E23" stroke-width="1.5" stroke-linecap="round" stroke-linejoin="round"/>
<path d="M10 6.66663H16.6667" stroke="#1A1E23" stroke-width="1.5" stroke-linecap="round" stroke-linejoin="round"/>
<path d="M10 13.3334H16.6667" stroke="#1A1E23" stroke-width="1.5" stroke-linecap="round" stroke-linejoin="round"/>
</svg>
