<svg width="24" height="24" viewBox="0 0 24 24" fill="none" xmlns="http://www.w3.org/2000/svg">
  <path
    d="M21 12V15C21 15.2652 20.8946 15.5196 20.7071 15.7071C20.5196 15.8946 20.2652 16 20 16H4C3.73478 16 3.48043 15.8946 3.29289 15.7071C3.10536 15.5196 3 15.2652 3 15V5C3 4.73478 3.10536 4.48043 3.29289 4.29289C3.48043 4.10536 3.73478 4 4 4H12"
    stroke-width="1.5"
    stroke-linecap="round"
    stroke-linejoin="round"
  />
  <path d="M7 20H17" stroke-width="1.5" stroke-linecap="round" stroke-linejoin="round" />
  <path d="M9 16V20" stroke-width="1.5" stroke-linecap="round" stroke-linejoin="round" />
  <path d="M15 16V20" stroke-width="1.5" stroke-linecap="round" stroke-linejoin="round" />
  <path
    fill-rule="evenodd"
    clip-rule="evenodd"
    fill="#69788E"
    d="M14 3C14 1.34315 15.3431 0 17 0H21C22.6569 0 24 1.34315 24 3V7C24 8.65685 22.6569 10 21 10H17C15.3431 10 14 8.65685 14 7V3ZM19 1.25C19.4142 1.25 19.75 1.58579 19.75 2V4.25H22C22.4142 4.25 22.75 4.58579 22.75 5C22.75 5.41421 22.4142 5.75 22 5.75H19.75V8C19.75 8.41421 19.4142 8.75 19 8.75C18.5858 8.75 18.25 8.41421 18.25 8V5.75H16C15.5858 5.75 15.25 5.41421 15.25 5C15.25 4.58579 15.5858 4.25 16 4.25H18.25V2C18.25 1.58579 18.5858 1.25 19 1.25Z"
  />
</svg>
