<svg width="24" height="24" viewBox="0 0 24 24" fill="none" xmlns="http://www.w3.org/2000/svg">
  <path
    d="M10.325 4.31651C10.751 2.56051 13.249 2.56051 13.675 4.31651C13.7389 4.58031 13.8642 4.82529 14.0407 5.03151C14.2172 5.23773 14.4399 5.39937 14.6907 5.50326C14.9414 5.60715 15.2132 5.65036 15.4838 5.62938C15.7544 5.6084 16.0162 5.52381 16.248 5.38251C17.791 4.44251 19.558 6.20851 18.618 7.75251C18.4769 7.98417 18.3924 8.24585 18.3715 8.51628C18.3506 8.78672 18.3938 9.05828 18.4975 9.30889C18.6013 9.5595 18.7627 9.78209 18.9687 9.95856C19.1747 10.135 19.4194 10.2604 19.683 10.3245C21.439 10.7505 21.439 13.2485 19.683 13.6745C19.4192 13.7384 19.1742 13.8637 18.968 14.0402C18.7618 14.2167 18.6001 14.4394 18.4963 14.6902C18.3924 14.9409 18.3491 15.2127 18.3701 15.4833C18.3911 15.7539 18.4757 16.0158 18.617 16.2475C19.557 17.7905 17.791 19.5575 16.247 18.6175C16.0153 18.4764 15.7537 18.392 15.4832 18.371C15.2128 18.3501 14.9412 18.3933 14.6906 18.497C14.44 18.6008 14.2174 18.7623 14.0409 18.9682C13.8645 19.1742 13.7391 19.4189 13.675 19.6825C13.249 21.4385 10.751 21.4385 10.325 19.6825C10.2611 19.4187 10.1358 19.1737 9.95929 18.9675C9.7828 18.7613 9.56011 18.5997 9.30935 18.4958C9.05859 18.3919 8.78683 18.3487 8.51621 18.3696C8.24559 18.3906 7.98375 18.4752 7.752 18.6165C6.209 19.5565 4.442 17.7905 5.382 16.2465C5.5231 16.0149 5.60755 15.7532 5.62848 15.4827C5.64942 15.2123 5.60624 14.9407 5.50247 14.6901C5.3987 14.4395 5.23726 14.2169 5.03127 14.0405C4.82529 13.864 4.58056 13.7386 4.317 13.6745C2.561 13.2485 2.561 10.7505 4.317 10.3245C4.5808 10.2606 4.82578 10.1353 5.032 9.9588C5.23822 9.78231 5.39985 9.55962 5.50375 9.30886C5.60764 9.0581 5.65085 8.78635 5.62987 8.51573C5.60889 8.24511 5.5243 7.98326 5.383 7.75151C4.443 6.20851 6.209 4.44151 7.753 5.38151C8.753 5.98951 10.049 5.45151 10.325 4.31651Z"
    stroke-linecap="round"
    stroke-linejoin="round"
  />
  <path
    d="M12 14.9995C13.6569 14.9995 15 13.6564 15 11.9995C15 10.3427 13.6569 8.99951 12 8.99951C10.3431 8.99951 9 10.3427 9 11.9995C9 13.6564 10.3431 14.9995 12 14.9995Z"
    stroke-linecap="round"
    stroke-linejoin="round"
  />
</svg>
