<svg width="32" height="33" viewBox="0 0 32 33" fill="none" xmlns="http://www.w3.org/2000/svg">
  <path
    d="M15.9999 4.5C19.1144 7.25543 23.1792 8.69009 27.3333 8.5C27.9381 10.5574 28.1231 12.7153 27.8774 14.8456C27.6318 16.9759 26.9604 19.035 25.9031 20.9007C24.8459 22.7664 23.4245 24.4005 21.7232 25.706C20.022 27.0114 18.0757 27.9616 15.9999 28.5C13.9242 27.9616 11.9779 27.0114 10.2767 25.706C8.57542 24.4005 7.15395 22.7664 6.09674 20.9007C5.03952 19.035 4.36812 16.9759 4.12244 14.8456C3.87676 12.7153 4.06182 10.5574 4.66661 8.5C8.82065 8.69009 12.8855 7.25543 15.9999 4.5"
    stroke-linecap="round"
    stroke-linejoin="round"
  />
  <path
    d="M16.0001 16.5C16.7365 16.5 17.3334 15.9031 17.3334 15.1667C17.3334 14.4303 16.7365 13.8333 16.0001 13.8333C15.2637 13.8333 14.6667 14.4303 14.6667 15.1667C14.6667 15.9031 15.2637 16.5 16.0001 16.5Z"
    stroke-linecap="round"
    stroke-linejoin="round"
  />
  <path d="M16 16.5V19.8333" stroke-linecap="round" stroke-linejoin="round" />
</svg>
