<svg width="20" height="20" viewBox="0 0 20 20" fill="none" xmlns="http://www.w3.org/2000/svg">
<path d="M12.5 6.6665C13.0175 7.05462 13.4375 7.55788 13.7268 8.13645C14.0161 8.71501 14.1667 9.35298 14.1667 9.99984C14.1667 10.6467 14.0161 11.2847 13.7268 11.8632C13.4375 12.4418 13.0175 12.9451 12.5 13.3332" stroke-width="1.5" stroke-linecap="round" stroke-linejoin="round"/>
<path d="M14.75 4.1665C15.62 4.86955 16.3217 5.75828 16.8037 6.7676C17.2858 7.77693 17.536 8.8813 17.536 9.99984C17.536 11.1184 17.2858 12.2227 16.8037 13.2321C16.3217 14.2414 15.62 15.1301 14.75 15.8332" stroke-width="1.5" stroke-linecap="round" stroke-linejoin="round"/>
<path d="M5 12.5002H3.33333C3.11232 12.5002 2.90036 12.4124 2.74408 12.2561C2.5878 12.0998 2.5 11.8879 2.5 11.6668L2.5 8.33351C2.5 8.1125 2.5878 7.90054 2.74408 7.74426C2.90036 7.58798 3.11232 7.50018 3.33333 7.50018L5 7.50018L7.91667 3.75018C7.9895 3.60871 8.11054 3.49795 8.25791 3.43792C8.40528 3.3779 8.56925 3.37256 8.72021 3.42288C8.87117 3.4732 8.99915 3.57586 9.08103 3.7123C9.16291 3.84874 9.19328 4.00997 9.16667 4.16685L9.16667 15.8335C9.19328 15.9904 9.16291 16.1516 9.08103 16.2881C8.99915 16.4245 8.87117 16.5272 8.72021 16.5775C8.56925 16.6278 8.40528 16.6225 8.25791 16.5624C8.11054 16.5024 7.9895 16.3917 7.91667 16.2502L5 12.5002Z" stroke-width="1.5" stroke-linecap="round" stroke-linejoin="round"/>
</svg>
