<svg width="20" height="20" viewBox="0 0 20 20" fill="none" xmlns="http://www.w3.org/2000/svg">
  <path
    d="M16.6673 9.16658C16.4635 7.7001 15.7832 6.3413 14.7312 5.2995C13.6792 4.25769 12.3138 3.59068 10.8454 3.40121C9.37697 3.21174 7.887 3.51032 6.60499 4.25096C5.32297 4.99159 4.32003 6.1332 3.75065 7.49992M3.33398 4.16658V7.49992H6.66732"
    stroke="white"
    stroke-width="1.5"
    stroke-linecap="round"
    stroke-linejoin="round"
  />
  <path
    d="M3.33398 10.834C3.53778 12.3005 4.21809 13.6593 5.27012 14.7011C6.32214 15.7429 7.68752 16.4099 9.15593 16.5994C10.6243 16.7888 12.1143 16.4902 13.3963 15.7496C14.6783 15.009 15.6813 13.8674 16.2507 12.5007M16.6673 15.834V12.5007H13.334"
    stroke="white"
    stroke-width="1.5"
    stroke-linecap="round"
    stroke-linejoin="round"
  />
</svg>
