<svg width="21" height="20" viewBox="0 0 21 20" fill="none" xmlns="http://www.w3.org/2000/svg">
<path d="M8.00033 9.16667C9.84127 9.16667 11.3337 7.67428 11.3337 5.83333C11.3337 3.99238 9.84127 2.5 8.00033 2.5C6.15938 2.5 4.66699 3.99238 4.66699 5.83333C4.66699 7.67428 6.15938 9.16667 8.00033 9.16667Z" stroke-linecap="round" stroke-linejoin="round"/>
<path d="M3 17.5V15.8333C3 14.9493 3.35119 14.1014 3.97631 13.4763C4.60143 12.8512 5.44928 12.5 6.33333 12.5H9.66667C10.5507 12.5 11.3986 12.8512 12.0237 13.4763C12.6488 14.1014 13 14.9493 13 15.8333V17.5" stroke-linecap="round" stroke-linejoin="round"/>
<path d="M13.833 9.16667H18.833M16.333 6.66667V11.6667" stroke-linecap="round" stroke-linejoin="round"/>
</svg>
