<svg width="32" height="32" viewBox="0 0 32 32" fill="none" xmlns="http://www.w3.org/2000/svg">
<path d="M4 3.99902L28 27.999" stroke-linecap="round" stroke-linejoin="round"/>
<path d="M20 14.6658V13.3325L26.0707 10.2978C26.2739 10.1963 26.4997 10.1484 26.7267 10.1586C26.9536 10.1688 27.1742 10.2368 27.3675 10.3563C27.5608 10.4757 27.7203 10.6425 27.831 10.8409C27.9417 11.0393 27.9999 11.2627 28 11.4898V20.5085C28.0001 20.7863 27.9134 21.0572 27.752 21.2833C27.5907 21.5095 27.3627 21.6796 27.1 21.7698" stroke-linecap="round" stroke-linejoin="round"/>
<path d="M13.3333 7.99902H17.3333C18.0406 7.99902 18.7189 8.27997 19.219 8.78007C19.719 9.28017 20 9.95845 20 10.6657V14.6657M20 19.999V21.3324C20 22.0396 19.719 22.7179 19.219 23.218C18.7189 23.7181 18.0406 23.999 17.3333 23.999H6.66667C5.95942 23.999 5.28115 23.7181 4.78105 23.218C4.28095 22.7179 4 22.0396 4 21.3324V10.6657C4 9.95845 4.28095 9.28017 4.78105 8.78007C5.28115 8.27997 5.95942 7.99902 6.66667 7.99902H8" stroke-linecap="round" stroke-linejoin="round"/>
</svg>
