<svg width="32" height="32" viewBox="0 0 32 32" fill="none" xmlns="http://www.w3.org/2000/svg">
<path d="M20 13.3323L26.0707 10.2977C26.2739 10.1961 26.4997 10.1482 26.7267 10.1584C26.9536 10.1686 27.1742 10.2367 27.3675 10.3561C27.5608 10.4755 27.7203 10.6423 27.831 10.8407C27.9417 11.0391 27.9999 11.2625 28 11.4897V20.5083C27.9999 20.7355 27.9417 20.9589 27.831 21.1573C27.7203 21.3557 27.5608 21.5225 27.3675 21.6419C27.1742 21.7613 26.9536 21.8294 26.7267 21.8396C26.4997 21.8498 26.2739 21.8019 26.0707 21.7003L20 18.6657V13.3323Z" stroke-linecap="round" stroke-linejoin="round"/>
<path d="M17.3333 7.99902H6.66667C5.19391 7.99902 4 9.19293 4 10.6657V21.3324C4 22.8051 5.19391 23.999 6.66667 23.999H17.3333C18.8061 23.999 20 22.8051 20 21.3324V10.6657C20 9.19293 18.8061 7.99902 17.3333 7.99902Z" stroke-linecap="round" stroke-linejoin="round"/>
</svg>
