<svg width="16" height="16" viewBox="0 0 16 16" fill="none" xmlns="http://www.w3.org/2000/svg">
<path d="M10 5.3335C10.414 5.64399 10.75 6.0466 10.9814 6.50945C11.2128 6.9723 11.3333 7.48268 11.3333 8.00016C11.3333 8.51765 11.2128 9.02802 10.9814 9.49087C10.75 9.95373 10.414 10.3563 10 10.6668" stroke="white" stroke-width="1.5" stroke-linecap="round" stroke-linejoin="round"/>
<path d="M11.7998 3.3335C12.4958 3.89593 13.0571 4.60691 13.4428 5.41438C13.8284 6.22184 14.0286 7.10534 14.0286 8.00016C14.0286 8.89499 13.8284 9.77849 13.4428 10.5859C13.0571 11.3934 12.4958 12.1044 11.7998 12.6668" stroke="white" stroke-width="1.5" stroke-linecap="round" stroke-linejoin="round"/>
<path d="M4 10.0001H2.66667C2.48986 10.0001 2.32029 9.92991 2.19526 9.80488C2.07024 9.67986 2 9.51029 2 9.33348V6.66681C2 6.49 2.07024 6.32043 2.19526 6.19541C2.32029 6.07038 2.48986 6.00014 2.66667 6.00014H4L6.33333 3.00014C6.3916 2.88696 6.48843 2.79836 6.60633 2.75034C6.72422 2.70232 6.8554 2.69805 6.97617 2.73831C7.09693 2.77856 7.19932 2.86069 7.26482 2.96984C7.33033 3.07899 7.35463 3.20797 7.33333 3.33348V12.6668C7.35463 12.7923 7.33033 12.9213 7.26482 13.0305C7.19932 13.1396 7.09693 13.2217 6.97617 13.262C6.8554 13.3022 6.72422 13.298 6.60633 13.25C6.48843 13.2019 6.3916 13.1133 6.33333 13.0001L4 10.0001Z" fill="white" stroke="white" stroke-width="1.5" stroke-linecap="round" stroke-linejoin="round"/>
</svg>
