<svg viewBox="0 0 129 24" xmlns="http://www.w3.org/2000/svg">
  <path
    d="M16.036 13.8919V23.6036H12.5045V13.3874C12.5045 10.4144 10.955 8.64864 8.57658 8.64864C6.05406 8.64864 3.53153 10.1081 3.53153 13.8919V23.6036H0V6.73873L3.53153 5.60359V8.30629C4.50451 6.30629 7.06307 5.4054 8.54055 5.29729C9.24325 5.26125 9.8919 5.29729 10.5225 5.4054C12.8108 5.74774 14.3964 6.95495 15.2613 8.91891C16.937 5.71171 19.7658 5.22522 21.5496 5.22522C26.0901 5.22522 28.5406 8.16215 28.5406 13.2072V23.6216H25.009V13.4414C25.009 10.4685 23.4595 8.66665 20.8649 8.66665C17.8559 8.59458 16.036 10.8829 16.036 13.8919Z"
  />
  <path
    d="M47.5677 13.1892C47.1353 10.1802 44.9731 8.36037 42.0542 8.36037C39.0632 8.36037 36.7389 10.1802 36.3065 13.1892H47.5677ZM51.0272 15.9279H36.3245C36.7569 18.937 39.1173 20.8289 42.1804 20.8289C44.3605 20.8289 46.3786 19.8198 47.3876 18.0541C48.3245 18.4325 49.4416 18.8289 50.4146 19.2072C48.865 22.3784 45.5677 23.982 42.0722 23.982C36.9191 23.982 32.793 20.2343 32.793 14.5406C32.793 8.84686 36.9011 5.20721 42.0722 5.20721C47.2254 5.20721 51.0813 8.82884 51.0813 14.5406C51.0632 14.973 51.0632 15.5496 51.0272 15.9279Z"
  />
  <path
    d="M69.4232 13.1892C68.9908 10.1802 66.8286 8.36037 63.9097 8.36037C60.9187 8.36037 58.5944 10.1802 58.162 13.1892H69.4232ZM72.8827 15.9279H58.18C58.6124 18.937 60.9728 20.8289 64.0358 20.8289C66.216 20.8289 68.234 19.8198 69.243 18.0541C70.18 18.4325 71.2971 18.8289 72.2701 19.2072C70.7205 22.3784 67.4232 23.982 63.9277 23.982C58.7746 23.982 54.6484 20.2343 54.6484 14.5406C54.6484 8.84686 58.7565 5.20721 63.9277 5.20721C69.0809 5.20721 72.9367 8.82884 72.9367 14.5406C72.9187 14.973 72.9187 15.5496 72.8827 15.9279Z"
  />
  <path
    d="M86.1079 8.63063C82.8466 8.63063 80.252 10.9369 80.252 14.5405C80.252 18.0901 82.8466 20.5586 86.1079 20.5586C89.2971 20.5586 92.1259 18.3604 92.1259 14.5405C92.1259 10.6847 89.0268 8.63063 86.1079 8.63063ZM92.1619 20.8288C90.9547 22.8649 88.3241 24 85.8016 24C80.8286 24 76.6484 20.3063 76.6484 14.5946C76.6484 8.84685 80.7926 5.22523 85.7656 5.22523C88.4502 5.22523 90.9728 6.27027 92.1619 8.3063V1.13513L95.6935 0V23.6216H92.1619V20.8288Z"
  />
  <path d="M104.937 5.4054L101.441 6.54053V23.6037H104.937V5.4054Z" />
  <path
    d="M124.702 14.5406C124.702 10.9189 121.981 8.63064 118.72 8.63064C115.458 8.63064 112.738 10.9009 112.738 14.5406C112.738 18.1982 115.458 20.5946 118.72 20.5946C121.981 20.5946 124.702 18.1982 124.702 14.5406ZM109.242 14.5406C109.242 8.82884 113.549 5.20721 118.72 5.20721C123.873 5.20721 128.233 8.82884 128.233 14.5406C128.233 20.2523 123.891 23.982 118.72 23.982C113.549 23.982 109.242 20.2523 109.242 14.5406Z"
  />
</svg>
