<svg width="16" height="16" viewBox="0 0 16 16" fill="none" xmlns="http://www.w3.org/2000/svg">
<path d="M8 0C3.58513 0 0 3.57991 0 8C0 12.4201 3.57991 16 8 16C12.4149 16 16 12.4201 16 8C16 3.57991 12.4201 0 8 0ZM5.87084 3.35551L6.68493 4.1696L5.87084 4.98369L5.05675 4.1696L5.87084 3.35551ZM10.8076 11.82H9.87345V8.46967L8.10437 10.2805L6.33007 8.46967V11.82H5.39595V5.97521H6.33007V7.24853L8.09915 9.03849L9.86823 7.24853V5.97521H10.8076V11.82ZM10.3327 4.98369L9.51859 4.1696L10.3327 3.35551L11.1468 4.1696L10.3327 4.98369Z" fill="#8CD2B4"/>
</svg>
