<svg width="16" height="16" viewBox="0 0 16 16" fill="none" xmlns="http://www.w3.org/2000/svg">
<path fill-rule="evenodd" clip-rule="evenodd" d="M8.33628 1.62973C8.29933 1.59611 8.25839 1.56895 8.21498 1.54834C8.14699 1.51597 8.07351 1.49997 8.00022 1.5C7.92692 1.49997 7.85344 1.51597 7.78545 1.54834C7.74204 1.56895 7.7011 1.59611 7.66416 1.62973C6.20488 2.91859 4.3015 3.58954 2.3564 3.50053C2.12632 3.49 1.91881 3.63801 1.85385 3.85899C1.53255 4.95196 1.43424 6.09836 1.56476 7.23008C1.69527 8.36179 2.05195 9.45572 2.6136 10.4469C3.17525 11.438 3.9304 12.3061 4.83419 12.9997C5.73798 13.6932 6.77195 14.198 7.87468 14.484C7.95701 14.5053 8.04342 14.5053 8.12575 14.484C9.22848 14.198 10.2625 13.6932 11.1662 12.9997C12.07 12.3061 12.8252 11.438 13.3868 10.4469C13.9485 9.45572 14.3052 8.36179 14.4357 7.23008C14.5662 6.09836 14.4679 4.95196 14.1466 3.85899C14.0816 3.63801 13.8741 3.49 13.644 3.50053C11.6989 3.58954 9.79555 2.91859 8.33628 1.62973ZM6.45021 7.05556C6.45021 6.19645 7.14666 5.5 8.00577 5.5C8.86488 5.5 9.56133 6.19645 9.56133 7.05556C9.56133 7.67609 9.19798 8.21176 8.67244 8.46141V10.1667C8.67244 10.5349 8.37396 10.8333 8.00577 10.8333C7.63758 10.8333 7.3391 10.5349 7.3391 10.1667V8.46141C6.81356 8.21176 6.45021 7.67609 6.45021 7.05556Z" />
</svg>
